<svg width="351" height="48" fill="none" xmlns="http://www.w3.org/2000/svg"><rect width="351" height="48" rx="8" fill="#30C3F3"/><mask id="a" maskUnits="userSpaceOnUse" x="0" y="0" width="351" height="48"><rect width="351" height="48" rx="8" fill="#30C3F3" opacity=".25"/></mask><g mask="url(#a)"><path d="M125.516 710.726c-19.29 0-38.6-8.87-58.69-26.9-21.36-19.16-40.65-45.71-59.33-71.38-28.22-38.81-55-75.62-82.54-75.62-1.95 0-3.9.19-5.81.56-18.75 3.61-43.8 13.66-70.33 24.29-32.55 13-69.45 27.84-99.86 32.44-34.89 5.27-56.4-3.55-65.79-27-18-44.81 5.5-91.73 26.2-133.12 13.07-26.13 25.42-50.81 25.18-71.18-.22-18-12-43-25.74-72.07-12.66-26.83-27-57.23-33.38-86-7.31-33.05-2.95-58.82 13.35-78.78l.16.14-.16-.14c18.28-22.38 55.21-9.89 94.31 3.33 39.91 13.49 81.18 27.43 108.45 7.52 14.08-10.28 31.81-28.74 52.33-50.1 29.56-30.78 63.07-65.65 97.44-88.56 40-26.66 72.75-31.2 100.1-13.88 22.71 14.39 35.86 34.65 40.19 62 3.82 24 .52 50-2.66 75.08-4 31.39-7.74 61 3.73 81.15 11.47 20.15 51.32 31.23 93.51 43.06 67.43 18.88 143.8 40.29 130.86 103.61-5.4 26.4-21.93 46.46-50.56 61.33-25.16 13.07-55.94 20.49-85.71 27.67-43.67 10.53-84.92 20.47-97.46 47-11.45 24.19-4.72 61.59 1.8 97.76 5.09 28.32 10.37 57.6 7 80.66-1.82 12.44-5.94 22.11-12.59 29.57-7.46 8.37-17.9 13.75-31.9 16.43-3.99.75-8.04 1.13-12.1 1.13zm-200.34-174.35c11.78 0 24 6.55 38.05 20.22 14.6 14.24 29.2 34.33 44.67 55.59 18.66 25.66 38 52.19 59.27 71.32 24.18 21.7 47.21 30.09 70.42 25.63 25.94-5 40.38-19.9 44.14-45.63 3.36-23-1.91-52.24-7-80.53-6.52-36.23-13.27-73.7-1.76-98 12.63-26.68 54-36.65 97.75-47.2 29.74-7.17 60.49-14.59 85.62-27.64 28.49-14.81 45-34.77 50.32-61 12.82-62.97-63.35-84.31-130.56-103.15-42.32-11.86-82.29-23.06-93.81-43.26-11.52-20.2-7.77-49.95-3.78-81.41 6.22-49 13.26-104.58-37.33-136.62-27.19-17.22-59.78-12.68-99.63 13.87-34.37 22.88-67.82 57.74-97.37 88.49-20.54 21.39-38.28 39.86-52.38 50.16-27.46 20-68.83 6.06-108.84-7.46-39-13.17-75.76-25.61-93.85-3.46-16.21 19.84-20.54 45.49-13.25 78.41 6.32 28.74 20.69 59.09 33.32 85.89 13.72 29.07 25.57 54.18 25.78 72.26.24 20.47-12.13 45.2-25.22 71.38-20.67 41.31-44.09 88.13-26.19 132.75 9.3 23.21 30.67 31.94 65.32 26.7 30.37-4.59 67.24-19.37 99.76-32.41 26.55-10.64 51.65-20.69 70.44-24.32 2.01-.39 4.06-.58 6.11-.58z" fill="url(#paint0_linear)"/><path d="M94.586 679.226c-42.45 0-76.92-44.47-107.67-84.14-13.44-17.35-26.14-33.73-38.74-45.64-15.25-14.45-28.84-20.24-41.54-17.73-16.61 3.3-38.36 11.54-61.38 20.26-47.45 18-101.22 38.36-131.86 24.28-9.71-4.46-16.65-12.29-20.63-23.26-14.85-41 6.88-84.25 26.05-122.41 12.35-24.59 24-47.82 24.23-67.2.17-16.44-10.39-39.33-22.61-65.82-11-23.95-23.57-51.1-29-76.73-6.27-29.46-2.24-52.46 12.3-70.33 16.51-20.31 49.62-9.47 84.67 2 35.6 11.66 72.41 23.71 96.72 5.71 12.68-9.39 28.54-26 46.9-45.14 26.38-27.63 56.34-58.94 87.15-79.63 35.8-24.1 65.21-28.56 89.9-13.64 20.41 12.34 32.61 29.91 37.29 53.7 4.12 20.95 2.05 43.83.05 66-2.55 28.27-5 55 6.11 73.53 10.83 18.17 46.18 28.81 83.61 40.09 60.66 18.27 129.41 39 116.71 97.64-5.13 23.67-20.1 41.78-45.79 55.36-22.58 12-50.13 18.9-76.77 25.63-39.37 9.95-76.56 19.34-88.22 43.5-10.5 21.86-4.91 55.37.5 87.77 4.25 25.43 8.64 51.72 5.37 72.57-3.69 23.5-16.91 37.33-40.41 42.31-4.26.88-8.6 1.33-12.94 1.32zm-182.17-148.78c11.19 0 23.09 6.09 36.16 18.47 12.66 12 25.38 28.39 38.84 45.76 33.69 43.46 71.85 92.71 119.93 82.54 23.22-4.91 36.27-18.58 39.92-41.78 3.26-20.76-1.12-47-5.36-72.37-5.43-32.5-11-66.11-.46-88.15 11.8-24.43 49.12-33.85 88.63-43.83 26.61-6.64 54.1-13.64 76.64-25.55 25.51-13.5 40.38-31.46 45.47-54.94 12.58-58.1-55.88-78.72-116.28-96.91-37.55-11.31-73-22-84-40.37-11.15-18.74-8.73-45.53-6.16-73.87 3.88-43 8.28-91.68-37-119.07-24.46-14.78-53.65-10.33-89.23 13.62-30.7 20.65-60.64 51.92-87.05 79.5-18.38 19.2-34.25 35.79-47 45.21-24.59 18.16-61.56 6.06-97.29-5.64-34.85-11.41-67.76-22.18-84-2.2-14.42 17.71-18.4 40.58-12.18 69.8 5.44 25.56 17.94 52.67 29 76.59 12.25 26.57 22.83 49.51 22.66 66.09-.2 19.53-11.9 42.82-24.29 67.49-19.11 38-40.78 81.16-26 121.9 3.91 10.82 10.74 18.52 20.3 22.91 30.4 14 84.05-6.36 131.38-24.29 23.05-8.74 44.82-17 61.47-20.29 1.94-.4 3.91-.61 5.9-.62z" fill="url(#paint1_linear)"/><path d="M63.346 647.806c-38.19 0-69.26-36.95-97-70-11.95-14.22-23.25-27.65-34.42-37.46-13.75-12.05-26.17-16.77-37.87-14.38-14.32 3-32.61 9.41-52 16.25-43.79 15.48-93.44 33-121.24 19.17-9-4.46-15.19-12.08-18.54-22.64-11.75-37.14 8.22-76.69 25.84-111.59 11.66-23.09 22.67-44.9 23.34-63.33.53-14.87-8.72-35.52-19.43-59.43-9.45-21.09-20.16-45-24.71-67.53-5.22-25.9-1.55-46.16 11.25-61.94 14.74-18.25 44-9.06 75 .67 31.29 9.81 63.64 20 85 3.89 11.3-8.51 25.29-23.18 41.49-40.17 23.3-24.44 49.72-52.15 76.85-70.63 31.61-21.53 57.68-25.92 79.69-13.4 40.58 23.06 38.85 63.42 37.15 102.46-1.1 25.06-2.13 48.7 8.54 65.7 10.2 16.27 41 26.36 73.62 37 54 17.68 115.14 37.71 102.65 91.77-10.82 46.78-62.89 60.67-108.83 72.93-35.1 9.36-68.25 18.21-79 40.08-9.6 19.53-5.13 49.19-.81 77.88 6.81 45.25 13.86 92-32.56 103a60.686 60.686 0 01-14.01 1.7zm-163.34-123.26c10.14 0 20.81 5 32.42 15.22 11.22 9.85 22.53 23.3 34.51 37.54 30.94 36.79 66 78.47 110.22 68.06 45.69-10.77 38.7-57.18 31.94-102.06-4.34-28.82-8.83-58.62.89-78.37 10.92-22.21 44.24-31.1 79.53-40.51 45.72-12.2 97.54-26 108.24-72.33 12.33-53.32-48.46-73.23-102.1-90.8-32.76-10.73-63.7-20.85-74.07-37.38-10.8-17.22-9.76-41-8.66-66.21 1.69-38.79 3.45-78.89-36.69-101.71-21.72-12.34-47.5-8-78.83 13.37-27.06 18.43-53.45 46.08-76.72 70.52-16.22 17-30.23 31.71-41.58 40.25-21.69 16.31-54.25 6.12-85.73-3.76-30.73-9.64-59.75-18.75-74.15-.94-28.37 35.01-6.05 84.74 13.57 128.63 10.76 24 20 44.73 19.5 59.79-.67 18.61-11.72 40.49-23.42 63.67-17.55 34.76-37.44 74.15-25.79 111 3.28 10.34 9.37 17.79 18.13 22.15 27.5 13.7 77-3.78 120.6-19.21 19.39-6.85 37.7-13.32 52.08-16.28 2.01-.42 4.05-.64 6.11-.64z" fill="url(#paint2_linear)"/><path d="M374.516 716.726c-19.29 0-38.6-8.87-58.69-26.9-21.36-19.16-40.65-45.71-59.33-71.38-28.22-38.81-55-75.62-82.54-75.62-1.95 0-3.9.19-5.81.56-18.75 3.61-43.8 13.66-70.33 24.29-32.55 13-69.45 27.84-99.86 32.44-34.89 5.27-56.4-3.55-65.79-27-18-44.81 5.5-91.73 26.2-133.12 13.07-26.13 25.42-50.81 25.18-71.18-.22-18-12-43-25.74-72.07-12.66-26.83-27-57.23-33.38-86-7.31-33.05-2.95-58.82 13.35-78.78l.16.14-.16-.14c18.28-22.38 55.21-9.89 94.31 3.33 39.91 13.49 81.18 27.43 108.45 7.52 14.08-10.28 31.81-28.74 52.33-50.1 29.56-30.78 63.07-65.65 97.44-88.56 40-26.66 72.75-31.2 100.1-13.88 22.71 14.39 35.86 34.65 40.19 62 3.82 24 .52 50-2.66 75.08-4 31.39-7.74 61 3.73 81.15 11.47 20.15 51.32 31.23 93.51 43.06 67.43 18.88 143.8 40.29 130.86 103.61-5.4 26.4-21.93 46.46-50.56 61.33-25.16 13.07-55.94 20.49-85.71 27.67-43.67 10.53-84.92 20.47-97.46 47-11.45 24.19-4.72 61.59 1.8 97.76 5.09 28.32 10.37 57.6 7 80.66-1.82 12.44-5.94 22.11-12.59 29.57-7.46 8.37-17.9 13.75-31.9 16.43-3.99.75-8.04 1.13-12.1 1.13zm-200.34-174.35c11.78 0 24 6.55 38.05 20.22 14.6 14.24 29.2 34.33 44.67 55.59 18.66 25.66 38 52.19 59.27 71.32 24.18 21.7 47.21 30.09 70.42 25.63 25.94-5 40.38-19.9 44.14-45.63 3.36-23-1.91-52.24-7-80.53-6.52-36.23-13.27-73.7-1.76-98 12.63-26.68 54-36.65 97.75-47.2 29.74-7.17 60.49-14.59 85.62-27.64 28.49-14.81 45-34.77 50.32-61 12.82-62.97-63.35-84.31-130.56-103.15-42.32-11.86-82.29-23.06-93.81-43.26-11.52-20.2-7.77-49.95-3.78-81.41 6.22-49 13.26-104.58-37.33-136.62-27.19-17.22-59.78-12.68-99.63 13.87-34.37 22.88-67.82 57.74-97.37 88.49-20.54 21.39-38.28 39.86-52.38 50.16-27.46 20-68.83 6.06-108.84-7.46-39-13.17-75.76-25.61-93.85-3.46-16.21 19.84-20.54 45.49-13.25 78.41 6.32 28.74 20.69 59.09 33.32 85.89 13.72 29.07 25.57 54.18 25.78 72.26.24 20.47-12.13 45.2-25.22 71.38-20.67 41.31-44.09 88.13-26.19 132.75 9.3 23.21 30.67 31.94 65.32 26.7 30.37-4.59 67.24-19.37 99.76-32.41 26.55-10.64 51.65-20.69 70.44-24.32 2.01-.39 4.06-.58 6.11-.58z" fill="url(#paint3_linear)"/><path d="M343.586 685.226c-42.45 0-76.92-44.47-107.67-84.14-13.44-17.35-26.14-33.73-38.74-45.64-15.25-14.45-28.84-20.24-41.54-17.73-16.61 3.3-38.36 11.54-61.38 20.26-47.45 18-101.22 38.36-131.86 24.28-9.71-4.46-16.65-12.29-20.63-23.26-14.85-41 6.88-84.25 26.05-122.41 12.35-24.59 24-47.82 24.23-67.2.17-16.44-10.39-39.33-22.61-65.82-11-23.95-23.57-51.1-29-76.73-6.27-29.46-2.24-52.46 12.3-70.33 16.51-20.31 49.62-9.47 84.67 2 35.6 11.66 72.41 23.71 96.72 5.71 12.68-9.39 28.54-26 46.9-45.14 26.38-27.63 56.34-58.94 87.15-79.63 35.8-24.1 65.21-28.56 89.9-13.64 20.41 12.34 32.61 29.91 37.29 53.7 4.12 20.95 2.05 43.83.05 66-2.55 28.27-5 55 6.11 73.53 10.83 18.17 46.18 28.81 83.61 40.09 60.66 18.27 129.41 39 116.71 97.64-5.13 23.67-20.1 41.78-45.79 55.36-22.58 12-50.13 18.9-76.77 25.63-39.37 9.95-76.56 19.34-88.22 43.5-10.5 21.86-4.91 55.37.5 87.77 4.25 25.43 8.64 51.72 5.37 72.57-3.69 23.5-16.91 37.33-40.41 42.31-4.26.88-8.6 1.33-12.94 1.32zm-182.17-148.78c11.19 0 23.09 6.09 36.16 18.47 12.66 12 25.38 28.39 38.84 45.76 33.69 43.46 71.85 92.71 119.93 82.54 23.22-4.91 36.27-18.58 39.92-41.78 3.26-20.76-1.12-47-5.36-72.37-5.43-32.5-11-66.11-.46-88.15 11.8-24.43 49.12-33.85 88.63-43.83 26.61-6.64 54.1-13.64 76.64-25.55 25.51-13.5 40.38-31.46 45.47-54.94 12.58-58.1-55.88-78.72-116.28-96.91-37.55-11.31-73-22-84-40.37-11.15-18.74-8.73-45.53-6.16-73.87 3.88-43 8.28-91.68-37-119.07-24.46-14.78-53.65-10.33-89.23 13.62-30.7 20.65-60.64 51.92-87.05 79.5-18.38 19.2-34.25 35.79-47 45.21-24.59 18.16-61.56 6.06-97.29-5.64-34.85-11.41-67.76-22.18-84-2.2-14.42 17.71-18.4 40.58-12.18 69.8 5.44 25.56 17.94 52.67 29 76.59 12.25 26.57 22.83 49.51 22.66 66.09-.2 19.53-11.9 42.82-24.29 67.49-19.11 38-40.78 81.16-26 121.9 3.91 10.82 10.74 18.52 20.3 22.91 30.4 14 84.05-6.36 131.38-24.29 23.05-8.74 44.82-17 61.47-20.29 1.94-.4 3.91-.61 5.9-.62z" fill="url(#paint4_linear)"/></g><rect opacity=".7" x=".5" y=".5" width="350" height="47" rx="7.5" stroke="#F8F8F8"/><defs><linearGradient id="paint0_linear" x1="-93.025" y1="270.1" x2="269.635" y2="659.44" gradientUnits="userSpaceOnUse"><stop stop-color="#D7D7D7"/><stop offset="1" stop-color="#fff"/></linearGradient><linearGradient id="paint1_linear" x1="-104.508" y1="280.793" x2="258.162" y2="670.133" gradientUnits="userSpaceOnUse"><stop stop-color="#D7D7D7"/><stop offset="1" stop-color="#fff"/></linearGradient><linearGradient id="paint2_linear" x1="-116.011" y1="291.513" x2="246.659" y2="680.843" gradientUnits="userSpaceOnUse"><stop stop-color="#D7D7D7"/><stop offset="1" stop-color="#fff"/></linearGradient><linearGradient id="paint3_linear" x1="155.975" y1="276.1" x2="518.635" y2="665.44" gradientUnits="userSpaceOnUse"><stop stop-color="#D7D7D7"/><stop offset="1" stop-color="#fff"/></linearGradient><linearGradient id="paint4_linear" x1="144.492" y1="286.793" x2="507.162" y2="676.133" gradientUnits="userSpaceOnUse"><stop stop-color="#D7D7D7"/><stop offset="1" stop-color="#fff"/></linearGradient></defs></svg>