<svg width="264" height="400" fill="none" xmlns="http://www.w3.org/2000/svg"><g opacity=".3"><mask id="a" fill="#fff"><path fill-rule="evenodd" clip-rule="evenodd" d="M8 0a8 8 0 00-8 8v384a8 8 0 008 8h248a8 8 0 008-8V8a8 8 0 00-8-8H8zm55.24 64.559C76.606 46.124 98.928 32 132 32c29.981 0 52.138 10.1 66.395 26.754 14.256 16.653 20.494 39.349 20.494 63.966 0 1.961.065 3.959.13 5.97.135 4.157.271 8.364-.16 12.392 3.001 3.598 5.141 8.705 5.141 15.022 0 11.817-8.247 20.901-18.757 23.525-6.9 17.978-15.509 35.205-27.013 48.324C166.2 241.672 150.747 251 132 251c-18.747 0-34.192-9.33-46.22-22.975-11.51-13.059-20.12-30.156-27.023-47.897C48.135 177.406 40 167.934 40 156.104c0-6.304 2.134-11.397 5.121-14.991a5.012 5.012 0 01-.01-.143v-18.25c0-17.409 4.762-39.726 18.129-58.161z"/></mask><path fill-rule="evenodd" clip-rule="evenodd" d="M8 0a8 8 0 00-8 8v384a8 8 0 008 8h248a8 8 0 008-8V8a8 8 0 00-8-8H8zm55.24 64.559C76.606 46.124 98.928 32 132 32c29.981 0 52.138 10.1 66.395 26.754 14.256 16.653 20.494 39.349 20.494 63.966 0 1.961.065 3.959.13 5.97.135 4.157.271 8.364-.16 12.392 3.001 3.598 5.141 8.705 5.141 15.022 0 11.817-8.247 20.901-18.757 23.525-6.9 17.978-15.509 35.205-27.013 48.324C166.2 241.672 150.747 251 132 251c-18.747 0-34.192-9.33-46.22-22.975-11.51-13.059-20.12-30.156-27.023-47.897C48.135 177.406 40 167.934 40 156.104c0-6.304 2.134-11.397 5.121-14.991a5.012 5.012 0 01-.01-.143v-18.25c0-17.409 4.762-39.726 18.129-58.161z" fill="#0F1721"/><path d="M198.395 58.754l-.57.488.57-.488zm20.624 69.936l-.75.024.75-.024zm-.16 12.392l-.746-.079-.034.316.204.244.576-.481zm-13.616 38.547l-.182-.727-.379.094-.14.365.701.268zm-27.013 48.324l-.564-.494.564.494zm-92.45.072l.563-.496-.563.496zm-27.023-47.897l.7-.271-.14-.359-.373-.096-.187.726zm-13.636-39.015l.577.479.196-.236-.026-.305-.747.062zm-.01-.143h-.75v.022l.001.021.75-.043zM-.75 8v5.053h1.5V8h-1.5zm0 15.158v10.105h1.5V23.158h-1.5zm0 20.21v10.106h1.5V43.368h-1.5zm0 20.21v10.106h1.5V63.58h-1.5zm0 20.212v10.105h1.5V83.79h-1.5zm0 20.21v10.105h1.5V104h-1.5zm0 20.211v10.105h1.5v-10.105h-1.5zm0 20.21v10.105h1.5v-10.105h-1.5zm0 20.211v10.105h1.5v-10.105h-1.5zm0 20.21v10.105h1.5v-10.105h-1.5zm0 20.211v10.105h1.5v-10.105h-1.5zm0 20.21v10.105h1.5v-10.105h-1.5zm0 20.211v10.105h1.5v-10.105h-1.5zm0 20.21v10.105h1.5v-10.105h-1.5zm0 20.211V296h1.5v-10.105h-1.5zm0 20.21v10.105h1.5v-10.105h-1.5zm0 20.211v10.105h1.5v-10.105h-1.5zm0 20.21v10.105h1.5v-10.105h-1.5zm0 20.211v10.105h1.5v-10.105h-1.5zm0 20.21V392h1.5v-5.053h-1.5zm0 5.053a8.73 8.73 0 00.664 3.35l1.386-.575A7.228 7.228 0 01.75 392h-1.5zm5.4 8.086a8.73 8.73 0 003.35.664v-1.5a7.227 7.227 0 01-2.775-.55l-.575 1.386zm3.35.664h5.167v-1.5H8v1.5zm15.5 0h10.333v-1.5H23.5v1.5zm20.667 0H54.5v-1.5H44.167v1.5zm20.666 0h10.334v-1.5H64.833v1.5zm20.667 0h10.333v-1.5H85.5v1.5zm20.667 0H116.5v-1.5h-10.333v1.5zm20.666 0h10.334v-1.5h-10.334v1.5zm20.667 0h10.333v-1.5H147.5v1.5zm20.667 0H178.5v-1.5h-10.333v1.5zm20.666 0h10.334v-1.5h-10.334v1.5zm20.667 0h10.333v-1.5H209.5v1.5zm20.667 0H240.5v-1.5h-10.333v1.5zm20.666 0H256v-1.5h-5.167v1.5zm5.167 0a8.734 8.734 0 003.35-.664l-.575-1.386a7.23 7.23 0 01-2.775.55v1.5zm8.086-5.4a8.734 8.734 0 00.664-3.35h-1.5a7.23 7.23 0 01-.55 2.775l1.386.575zm.664-3.35v-5.053h-1.5V392h1.5zm0-15.158v-10.105h-1.5v10.105h1.5zm0-20.21v-10.106h-1.5v10.106h1.5zm0-20.211v-10.105h-1.5v10.105h1.5zm0-20.21v-10.106h-1.5v10.106h1.5zm0-20.211v-10.105h-1.5V296h1.5zm0-20.211v-10.105h-1.5v10.105h1.5zm0-20.21v-10.105h-1.5v10.105h1.5zm0-20.211v-10.105h-1.5v10.105h1.5zm0-20.21v-10.105h-1.5v10.105h1.5zm0-20.211v-10.105h-1.5v10.105h1.5zm0-20.21v-10.105h-1.5v10.105h1.5zm0-20.211v-10.105h-1.5v10.105h1.5zm0-20.21v-10.105h-1.5v10.105h1.5zm0-20.211V104h-1.5v10.105h1.5zm0-20.21V83.79h-1.5v10.105h1.5zm0-20.21V63.578h-1.5v10.105h1.5zm0-20.211V43.369h-1.5v10.105h1.5zm0-20.21V23.157h-1.5v10.105h1.5zm0-20.211V8h-1.5v5.053h1.5zm0-5.053a8.73 8.73 0 00-.664-3.35l-1.386.575c.354.854.55 1.79.55 2.775h1.5zm-5.4-8.086A8.73 8.73 0 00256-.75v1.5c.984 0 1.921.196 2.775.55l.575-1.386zM256-.75h-5.167v1.5H256v-1.5zm-15.5 0h-10.333v1.5H240.5v-1.5zm-20.667 0H209.5v1.5h10.333v-1.5zm-20.666 0h-10.334v1.5h10.334v-1.5zm-20.667 0h-10.333v1.5H178.5v-1.5zm-20.667 0H147.5v1.5h10.333v-1.5zm-20.666 0h-10.334v1.5h10.334v-1.5zm-20.667 0h-10.333v1.5H116.5v-1.5zm-20.667 0H85.5v1.5h10.333v-1.5zm-20.666 0H64.833v1.5h10.334v-1.5zM54.5-.75H44.167v1.5H54.5v-1.5zm-20.667 0H23.5v1.5h10.333v-1.5zm-20.666 0H8v1.5h5.167v-1.5zM8-.75a8.726 8.726 0 00-3.35.664L5.225 1.3A7.226 7.226 0 018 .75v-1.5zm-8.086 5.4A8.726 8.726 0 00-.75 8h1.5c0-.984.196-1.921.55-2.775L-.086 4.65zM132 31.25c-1.689 0-3.35.037-4.984.108l.066 1.5c1.612-.072 3.251-.108 4.918-.108v-1.5zm-14.896 1.014a92.892 92.892 0 00-9.787 1.911l.367 1.455a91.45 91.45 0 019.629-1.88l-.209-1.486zm-19.299 4.91a79.474 79.474 0 00-9.082 4.134l.707 1.323a77.984 77.984 0 018.91-4.056l-.535-1.4zm-17.562 9.397a76.108 76.108 0 00-7.722 6.326l1.025 1.096a74.624 74.624 0 017.57-6.202l-.873-1.22zm-14.556 13.6a79.489 79.489 0 00-3.055 3.947l1.215.881a77.997 77.997 0 012.997-3.872l-1.157-.955zm-3.055 3.947a86.18 86.18 0 00-2.925 4.304l1.265.806a84.63 84.63 0 012.875-4.229l-1.215-.88zM54.642 77.5a97.627 97.627 0 00-4.032 9.578l1.411.508a96.08 96.08 0 013.97-9.43l-1.35-.656zm-7.055 19.514a108.118 108.118 0 00-2.04 10.181l1.484.224c.496-3.29 1.16-6.651 2.01-10.04l-1.454-.365zm-3.09 20.513a99.858 99.858 0 00-.136 5.193h1.5c0-1.662.044-3.37.135-5.115l-1.498-.078zm-.136 5.193v4.563h1.5v-4.563h-1.5zm0 13.688v4.562h1.5v-4.562h-1.5zm.001 4.605l.003.04 1.497-.094-.002-.031-1.498.085zm.008.122l.004.04 1.494-.124-.002-.031-1.496.115zm.174-.501a21.778 21.778 0 00-2.346 3.457l1.315.721a20.338 20.338 0 012.185-3.22l-1.154-.958zm-4.982 11.329a27.172 27.172 0 00-.312 4.141h1.5c0-1.365.103-2.67.294-3.912l-1.482-.229zm-.312 4.141c0 1.438.117 2.844.341 4.208l1.48-.243a24.424 24.424 0 01-.321-3.965h-1.5zm3.076 12.171a25.478 25.478 0 005.2 6.618l1.011-1.108a23.966 23.966 0 01-4.894-6.229l-1.317.719zm12.255 11.203a25.91 25.91 0 003.99 1.377l.373-1.453a24.5 24.5 0 01-3.76-1.297l-.603 1.373zm3.477.922a282.633 282.633 0 001.71 4.291l1.388-.567a284.757 284.757 0 01-1.7-4.267l-1.398.543zm5.355 12.781a201.11 201.11 0 004 8.335l1.337-.68c-1.38-2.709-2.701-5.471-3.97-8.274l-1.367.619zm8.42 16.465a138.06 138.06 0 004.913 7.85l1.243-.84a136.15 136.15 0 01-4.86-7.764l-1.297.754zm10.4 15.321a98.573 98.573 0 002.985 3.553l1.125-.991a96.818 96.818 0 01-2.94-3.5l-1.17.938zm2.985 3.553a89.18 89.18 0 003.043 3.285l1.074-1.048a87.145 87.145 0 01-2.992-3.228l-1.125.991zm9.64 9.344a68.47 68.47 0 007.295 5.221l.789-1.276a67.075 67.075 0 01-7.135-5.106l-.949 1.161zm15.256 9.378a55.715 55.715 0 008.517 2.878l.363-1.455a54.288 54.288 0 01-8.288-2.801l-.592 1.378zm17.389 4.329c1.478.118 2.977.179 4.497.179v-1.5c-1.48 0-2.939-.059-4.377-.174l-.12 1.495zm4.497.179c1.521 0 3.022-.061 4.501-.179l-.12-1.496a54.498 54.498 0 01-4.381.175v1.5zm13.382-1.634a55.606 55.606 0 008.524-2.885l-.594-1.378a54.154 54.154 0 01-8.293 2.808l.363 1.455zm16.488-7.056a68.27 68.27 0 007.294-5.237l-.951-1.16a66.917 66.917 0 01-7.134 5.123l.791 1.274zm13.885-11.317a89.02 89.02 0 003.038-3.295l-1.127-.989a87.817 87.817 0 01-2.987 3.239l1.076 1.045zm3.038-3.295a98.823 98.823 0 002.995-3.586l-1.173-.934a98.905 98.905 0 01-2.949 3.531l1.127.989zm8.495-11.126a138.65 138.65 0 004.916-7.922l-1.3-.749a136.49 136.49 0 01-4.862 7.836l1.246.835zm9.331-16.124a202.224 202.224 0 003.99-8.409l-1.369-.613a200.644 200.644 0 01-3.96 8.347l1.339.675zm7.623-16.973a289.787 289.787 0 001.701-4.327l-1.401-.537a280.308 280.308 0 01-1.691 4.304l1.391.56zm1.182-3.868a26.412 26.412 0 003.954-1.325l-.587-1.38c-1.201.511-2.448.93-3.73 1.25l.363 1.455zm10.994-5.756a24.812 24.812 0 005.236-6.473l-1.309-.733a23.288 23.288 0 01-4.92 6.082l.993 1.124zm7.991-14.334a25.34 25.34 0 00.341-4.163h-1.5c0 1.345-.11 2.652-.321 3.916l1.48.247zm.341-4.163c0-1.444-.109-2.829-.313-4.15l-1.482.229c.192 1.245.295 2.553.295 3.921h1.5zm-2.958-12.039a21.754 21.754 0 00-2.357-3.463l-1.152.961a20.205 20.205 0 012.194 3.224l1.315-.722zm-2.187-2.903c.111-1.038.185-2.086.231-3.139l-1.499-.066a48.152 48.152 0 01-.224 3.046l1.492.159zm.256-9.391c-.025-1.037-.059-2.075-.092-3.105l-1.5.048c.034 1.032.067 2.063.092 3.094l1.5-.037zm-.092-3.105l-.048-1.491-1.499.046.047 1.493 1.5-.048zm-.119-4.464c-.007-.496-.011-.99-.011-1.482h-1.5c0 .5.004 1.001.011 1.504l1.5-.022zm-.011-1.482c0-1.927-.038-3.843-.115-5.746l-1.499.06c.076 1.882.114 3.778.114 5.686h1.5zm-1.079-17.202a113.074 113.074 0 00-2.048-11.32l-1.46.344a111.809 111.809 0 012.021 11.17l1.487-.194zm-5.32-22.36a86.36 86.36 0 00-4.627-10.554l-1.329.694a85.171 85.171 0 014.546 10.372l1.41-.511zm-10.696-20.361a73.566 73.566 0 00-3.58-4.531l-1.139.976a72.027 72.027 0 013.506 4.438l1.213-.883zm-3.58-4.531a70.548 70.548 0 00-3.152-3.445l-1.072 1.049a69.068 69.068 0 013.085 3.372l1.139-.976zm-10.104-9.672a72.465 72.465 0 00-7.705-5.265l-.766 1.29a70.999 70.999 0 017.546 5.156l.925-1.18zm-16.001-9.523a83.892 83.892 0 00-8.729-3.264l-.448 1.432a82.31 82.31 0 018.573 3.205l.604-1.373zm-17.748-5.587a104.71 104.71 0 00-9.19-1.463l-.171 1.49c3.123.359 6.142.841 9.059 1.442l.302-1.47zm-18.46-2.152A130.078 130.078 0 00132 31.25v1.5c1.554 0 3.087.027 4.598.081l.053-1.499zm61.744 27.422l-1.14.975 1.14-.975zm20.624 69.936l-1.499.049 1.499-.049zm-.16 12.392l-1.492-.159-.067.632.407.488 1.152-.961zm-13.616 38.547l-.364-1.455-.757.189-.28.729 1.401.537zm-27.013 48.324l-1.128-.989 1.128.989zm-92.45.072l1.126-.992-1.126.992zm-27.023-47.897l1.398-.543-.279-.718-.746-.192-.373 1.453zm-13.636-39.015l1.154.959.392-.472-.051-.612-1.495.125zm-.01-.143h-1.5v.043l.003.042 1.497-.085zM-1.5 8v5.053h3V8h-3zm0 15.158v10.105h3V23.158h-3zm0 20.21v10.106h3V43.368h-3zm0 20.21v10.106h3V63.58h-3zm0 20.212v10.105h3V83.79h-3zm0 20.21v10.105h3V104h-3zm0 20.211v10.105h3v-10.105h-3zm0 20.21v10.105h3v-10.105h-3zm0 20.211v10.105h3v-10.105h-3zm0 20.21v10.105h3v-10.105h-3zm0 20.211v10.105h3v-10.105h-3zm0 20.21v10.105h3v-10.105h-3zm0 20.211v10.105h3v-10.105h-3zm0 20.21v10.105h3v-10.105h-3zm0 20.211V296h3v-10.105h-3zm0 20.21v10.105h3v-10.105h-3zm0 20.211v10.105h3v-10.105h-3zm0 20.21v10.105h3v-10.105h-3zm0 20.211v10.105h3v-10.105h-3zm0 20.21V392h3v-5.053h-3zm0 5.053c0 1.285.256 2.515.721 3.637l2.772-1.149A6.48 6.48 0 011.5 392h-3zm5.863 8.779A9.482 9.482 0 008 401.5v-3a6.475 6.475 0 01-2.488-.493l-1.149 2.772zM8 401.5h5.167v-3H8v3zm15.5 0h10.333v-3H23.5v3zm20.667 0H54.5v-3H44.167v3zm20.666 0h10.334v-3H64.833v3zm20.667 0h10.333v-3H85.5v3zm20.667 0H116.5v-3h-10.333v3zm20.666 0h10.334v-3h-10.334v3zm20.667 0h10.333v-3H147.5v3zm20.667 0H178.5v-3h-10.333v3zm20.666 0h10.334v-3h-10.334v3zm20.667 0h10.333v-3H209.5v3zm20.667 0H240.5v-3h-10.333v3zm20.666 0H256v-3h-5.167v3zm5.167 0a9.484 9.484 0 003.637-.721l-1.149-2.772a6.48 6.48 0 01-2.488.493v3zm8.779-5.863A9.484 9.484 0 00265.5 392h-3a6.48 6.48 0 01-.493 2.488l2.772 1.149zM265.5 392v-5.053h-3V392h3zm0-15.158v-10.105h-3v10.105h3zm0-20.21v-10.106h-3v10.106h3zm0-20.211v-10.105h-3v10.105h3zm0-20.21v-10.106h-3v10.106h3zm0-20.211v-10.105h-3V296h3zm0-20.211v-10.105h-3v10.105h3zm0-20.21v-10.105h-3v10.105h3zm0-20.211v-10.105h-3v10.105h3zm0-20.21v-10.105h-3v10.105h3zm0-20.211v-10.105h-3v10.105h3zm0-20.21v-10.105h-3v10.105h3zm0-20.211v-10.105h-3v10.105h3zm0-20.21v-10.105h-3v10.105h3zm0-20.211V104h-3v10.105h3zm0-20.21V83.79h-3v10.105h3zm0-20.21V63.578h-3v10.105h3zm0-20.211V43.369h-3v10.105h3zm0-20.21V23.157h-3v10.105h3zm0-20.211V8h-3v5.053h3zm0-5.053a9.482 9.482 0 00-.721-3.637l-2.772 1.15c.317.764.493 1.603.493 2.487h3zm-5.863-8.779A9.477 9.477 0 00256-1.5v3a6.48 6.48 0 012.488.493l1.149-2.772zM256-1.5h-5.167v3H256v-3zm-15.5 0h-10.333v3H240.5v-3zm-20.667 0H209.5v3h10.333v-3zm-20.666 0h-10.334v3h10.334v-3zm-20.667 0h-10.333v3H178.5v-3zm-20.667 0H147.5v3h10.333v-3zm-20.666 0h-10.334v3h10.334v-3zm-20.667 0h-10.333v3H116.5v-3zm-20.667 0H85.5v3h10.333v-3zm-20.666 0H64.833v3h10.334v-3zM54.5-1.5H44.167v3H54.5v-3zm-20.667 0H23.5v3h10.333v-3zm-20.666 0H8v3h5.167v-3zM8-1.5a9.476 9.476 0 00-3.637.721l1.15 2.772A6.476 6.476 0 018 1.5v-3zM-.779 4.363A9.476 9.476 0 00-1.5 8h3c0-.884.176-1.723.493-2.488L-.78 4.363zM132 30.5c-1.7 0-3.372.037-5.017.11l.132 2.996c1.6-.07 3.229-.106 4.885-.106v-3zm-15.001 1.021a93.675 93.675 0 00-9.866 1.927l.735 2.909a90.665 90.665 0 019.55-1.865l-.419-2.97zm-19.462 4.953a80.225 80.225 0 00-9.167 4.173l1.413 2.646a77.226 77.226 0 018.825-4.017l-1.07-2.803zm-17.73 9.487a76.86 76.86 0 00-7.798 6.388l2.05 2.191a73.86 73.86 0 017.493-6.139l-1.745-2.44zM65.109 59.694a80.232 80.232 0 00-3.084 3.984l2.429 1.761a77.286 77.286 0 012.968-3.835l-2.313-1.91zm-3.084 3.984a86.909 86.909 0 00-2.95 4.341l2.53 1.611a83.928 83.928 0 012.849-4.19l-2.429-1.762zm-8.058 13.495a98.36 98.36 0 00-4.063 9.65l2.823 1.017a95.372 95.372 0 013.938-9.356l-2.698-1.311zm-7.108 19.659a108.847 108.847 0 00-2.053 10.252l2.967.447a105.871 105.871 0 011.996-9.97l-2.91-.73zm-3.11 20.656a100.582 100.582 0 00-.138 5.232h3c0-1.649.044-3.343.134-5.076l-2.996-.156zm-.138 5.232v4.563h3v-4.563h-3zm0 13.688v4.562h3v-4.562h-3zm.003 4.647l.002.046 2.994-.19-.001-.025-2.995.169zm.009.137l.003.046 2.99-.25-.002-.025-2.991.229zm.345-1.038a22.555 22.555 0 00-2.428 3.577l2.63 1.442a19.48 19.48 0 012.105-3.101l-2.307-1.918zm-5.148 11.695a27.914 27.914 0 00-.32 4.255h3c0-1.328.1-2.594.285-3.798l-2.964-.457zm-.32 4.255c0 1.479.12 2.925.351 4.33l2.96-.487a23.673 23.673 0 01-.311-3.843h-3zm3.167 12.53a26.22 26.22 0 005.354 6.813l2.021-2.217a23.204 23.204 0 01-4.741-6.033l-2.634 1.437zm12.613 11.531a26.766 26.766 0 004.105 1.417l.745-2.907a23.631 23.631 0 01-3.645-1.257l-1.205 2.747zm3.08.507c.56 1.439 1.13 2.873 1.713 4.302l2.778-1.133a280.142 280.142 0 01-1.696-4.256l-2.796 1.087zm5.37 12.818a202.83 202.83 0 004.015 8.367l2.673-1.362a199.54 199.54 0 01-3.955-8.242l-2.733 1.237zm8.454 16.533a138.542 138.542 0 004.94 7.892l2.486-1.679a134.994 134.994 0 01-4.832-7.721l-2.594 1.508zm10.464 15.413a98.931 98.931 0 003.007 3.58l2.25-1.983a96.253 96.253 0 01-2.916-3.473l-2.341 1.876zm3.007 3.58c1 1.134 2.022 2.239 3.069 3.312l2.148-2.094c-1.01-1.036-2-2.104-2.966-3.201l-2.25 1.983zm9.729 9.429a69.406 69.406 0 007.374 5.278l1.579-2.551a66.384 66.384 0 01-7.055-5.05l-1.898 2.323zm15.434 9.487a56.622 56.622 0 008.631 2.916l.726-2.911a53.512 53.512 0 01-8.173-2.762l-1.184 2.757zm17.626 4.387c1.497.12 3.016.181 4.556.181v-3c-1.46 0-2.899-.058-4.317-.172l-.239 2.991zm4.556.181a56.68 56.68 0 004.561-.182l-.24-2.99a53.933 53.933 0 01-4.321.172v3zm13.564-1.656a56.478 56.478 0 008.638-2.924l-1.186-2.756a53.39 53.39 0 01-8.179 2.769l.727 2.911zm16.702-7.147a69.117 69.117 0 007.374-5.294l-1.903-2.32a66.159 66.159 0 01-7.053 5.066l1.582 2.548zm14.028-11.432a88.85 88.85 0 003.063-3.323l-2.255-1.978a87.203 87.203 0 01-2.961 3.212l2.153 2.089zm3.063-3.323a98.445 98.445 0 003.018-3.613l-2.347-1.868a96.485 96.485 0 01-2.926 3.503l2.255 1.978zm8.554-11.203a138.82 138.82 0 004.943-7.965l-2.6-1.497a134.843 134.843 0 01-4.836 7.792l2.493 1.67zm9.378-16.204a202.441 202.441 0 004.005-8.44l-2.738-1.225a200.465 200.465 0 01-3.946 8.315l2.679 1.35zm7.649-17.029c.58-1.441 1.148-2.888 1.705-4.339l-2.801-1.075a274.935 274.935 0 01-1.687 4.293l2.783 1.121zm.668-3.421a27.264 27.264 0 004.066-1.363l-1.174-2.76a24.252 24.252 0 01-3.619 1.212l.727 2.911zm11.308-5.922a25.559 25.559 0 005.395-6.669l-2.618-1.465a22.544 22.544 0 01-4.762 5.885l1.985 2.249zm8.235-14.773c.231-1.387.351-2.818.351-4.286h-3c0 1.304-.107 2.57-.31 3.793l2.959.493zm.351-4.286c0-1.482-.112-2.905-.322-4.264l-2.965.457a24.84 24.84 0 01.287 3.807h3zm-3.051-12.4a22.444 22.444 0 00-2.438-3.582l-2.304 1.921a19.516 19.516 0 012.113 3.105l2.629-1.444zm-2.099-2.462c.114-1.056.188-2.12.235-3.186l-2.997-.131a47.158 47.158 0 01-.221 2.998l2.983.319zm.26-9.489a346.632 346.632 0 00-.092-3.112l-2.998.098c.033 1.032.067 2.06.091 3.087l2.999-.073zm-.092-3.112l-.047-1.489-2.999.092.048 1.495 2.998-.098zm-.118-4.45c-.007-.493-.011-.984-.011-1.471h-3c0 .504.004 1.009.011 1.515l3-.044zm-.011-1.471c0-1.937-.038-3.863-.116-5.777l-2.997.122c.075 1.871.113 3.757.113 5.655h3zm-1.085-17.299a113.815 113.815 0 00-2.062-11.395l-2.92.687c.848 3.607 1.515 7.311 2.007 11.095l2.975-.387zm-5.359-22.518a87.179 87.179 0 00-4.667-10.646l-2.659 1.388a84.357 84.357 0 014.506 10.28l2.82-1.022zM203.15 62.355a74.523 74.523 0 00-3.616-4.577l-2.279 1.951a71.42 71.42 0 013.47 4.393l2.425-1.767zm-3.616-4.577a71.716 71.716 0 00-3.185-3.481l-2.145 2.097a68.343 68.343 0 013.051 3.335l2.279-1.95zm-10.212-9.774a73.184 73.184 0 00-7.784-5.32l-1.531 2.58a70.251 70.251 0 017.466 5.102l1.849-2.362zm-16.161-9.62a84.618 84.618 0 00-8.807-3.292l-.896 2.863a81.628 81.628 0 018.495 3.176l1.208-2.746zm-17.899-5.635a105.487 105.487 0 00-9.255-1.473l-.342 2.98c3.101.357 6.099.835 8.992 1.431l.605-2.938zm-18.584-2.166A130.926 130.926 0 00132 30.5v3c1.545 0 3.069.027 4.571.08l.107-2.997z" fill="#283648" mask="url(#a)"/></g><path d="M132 32c-33.072 0-55.394 14.124-68.76 32.559C49.873 82.994 45.11 105.31 45.11 122.72v18.25l.01.143C42.134 144.707 40 149.8 40 156.104c0 11.831 8.135 21.302 18.757 24.024 6.903 17.741 15.514 34.838 27.023 47.897C97.808 241.67 113.253 251 132 251s34.2-9.328 46.23-23.047c11.504-13.119 20.113-30.346 27.013-48.324 10.51-2.624 18.757-11.708 18.757-23.525 0-6.317-2.14-11.424-5.141-15.022.64-5.976.03-12.348.03-18.362 0-24.617-6.238-47.313-20.494-63.966C184.138 42.1 161.981 32 132 32z" stroke="#30C3F3" stroke-width="2" stroke-linecap="round" stroke-linejoin="round" stroke-dasharray="8 8"/></svg>