<svg width="375" height="667" fill="none" xmlns="http://www.w3.org/2000/svg"><g clip-path="url(#clip0)"><path fill="#0D1115" d="M0 0h375v667H0z"/><mask id="a" maskUnits="userSpaceOnUse" x="0" y="0" width="375" height="812"><path fill="#C4C4C4" d="M0 0h375v812H0z"/></mask><g opacity=".2" clip-path="url(#clip1)"><path d="M77.686 406c-47.421 0-85.84-54.207-120.09-102.488-30.625-43.234-59.495-83.943-89.353-78.018-18.99 3.731-44.457 14.265-71.351 25.238-51.812 21.288-110.649 45.538-144.897 30.834-10.977-4.718-18.881-13.168-23.601-25.348-18.332-46.854 5.598-95.794 26.565-138.918 13.282-27.213 25.796-52.89 25.576-74.067-.219-18.655-12.184-44.77-26.125-74.946-12.843-27.981-27.443-59.693-33.919-89.649-7.465-34.565-2.964-61.449 13.611-82.298 18.661-23.482 56.313-10.424 96.05 3.402 40.395 14.045 82.218 28.53 109.77 7.9 14.271-10.643 32.273-29.956 53.02-52.121 29.967-32.042 63.996-68.472 98.903-92.283 40.725-27.872 74.095-32.59 101.977-14.485 51.812 33.687 44.567 91.735 38.2 143.088-4.061 32.7-7.793 63.534 3.733 84.383 11.526 20.739 51.921 32.37 94.732 44.66C298.984-59.365 376.701-37.09 363.529 29.187c-12.294 61.778-79.364 78.347-138.531 92.941-44.237 10.973-86.06 21.288-98.684 48.72-11.635 25.129-4.72 64.083 1.866 101.72 10.429 59.254 21.186 120.593-38.31 132.335-4.061.768-8.123 1.097-12.184 1.097zM-125.94 223.738c28.321 0 55.654 38.516 84.414 79.116C-4.642 354.975 37.29 414.01 89.76 403.695c26.564-5.267 40.725-20.19 44.567-47.293 3.402-23.921-1.976-54.317-7.135-83.834-6.587-37.747-13.502-76.92-1.757-102.268 12.843-27.981 54.886-38.296 99.452-49.379 58.838-14.594 125.578-31.053 137.763-92.173 12.953-65.29-64.106-87.455-132.274-107.096-43.03-12.4-83.645-24.031-95.391-45.209-11.745-21.178-7.903-52.231-3.842-85.041 6.257-51.024 13.392-108.742-37.76-141.99-62.021-40.271-141.495 44.55-199.564 106.548-20.857 22.275-38.859 41.587-53.239 52.341-27.992 20.958-70.034 6.364-110.759-7.681-39.407-13.717-76.62-26.555-94.842-3.731l-.439-.329.439.329c-36.883 46.306-5.049 115.326 20.418 170.85 13.941 30.285 26.015 56.51 26.235 75.384.219 21.397-12.294 47.184-25.686 74.506-20.967 43.015-44.677 91.735-26.565 138.041 4.61 11.851 12.404 20.19 23.052 24.799 33.809 14.484 92.427-9.657 144.019-30.944 27.004-11.083 52.471-21.617 71.571-25.348 1.976-.219 4.061-.439 6.037-.439z" fill="#A5D2AF"/><path d="M46.292 371.874c-43.25 0-78.377-46.416-109.552-87.894-13.392-17.776-26.015-34.565-38.639-46.854-15.917-15.692-29.419-21.727-42.591-19.093-16.905 3.401-38.969 12.07-62.35 21.178-47.97 18.654-102.306 39.831-133.591 25.457-10.099-4.609-17.344-12.948-21.515-24.58-15.148-42.794 6.916-87.893 26.455-127.725 12.514-25.567 24.369-49.708 24.588-69.789.22-17.008-10.538-40.82-22.942-68.471-11.196-25.019-23.93-53.22-29.418-79.993-6.367-30.834-2.305-54.865 12.514-73.519 16.904-21.398 50.604-9.986 86.389 1.975 36.005 12.07 73.217 24.579 97.806 6.035 12.733-9.766 28.76-26.884 47.311-46.745 26.894-28.749 57.3-61.449 88.585-83.066 36.554-25.237 66.521-29.846 91.769-14.264 46.542 28.859 42.042 79.993 38.09 124.982-2.634 29.408-5.05 57.169 6.147 76.372 10.977 18.764 46.763 29.847 84.634 41.588 61.691 19.093 131.615 40.6 118.662 101.939-11.636 55.304-71.681 70.885-124.7 84.602-39.847 10.314-77.498 20.08-89.243 45.099-10.648 22.714-4.94 57.498.548 91.185 8.672 53.329 17.673 108.413-35.895 120.045-4.39 1.097-8.781 1.536-13.062 1.536zm-184.854-155.817c11.635 0 23.71 6.474 37.541 20.081 12.624 12.509 25.357 29.298 38.75 47.074 31.064 41.149 65.971 87.345 108.563 87.345 4.17 0 8.452-.439 12.843-1.426 23.71-5.158 36.553-18.874 40.286-43.234 3.293-21.617-1.098-48.83-5.38-75.275-5.488-33.906-11.196-69.02-.438-92.063 12.075-25.567 49.946-35.443 90.122-45.757 52.58-13.607 112.185-29.079 123.711-83.615 12.734-60.132-56.642-81.529-117.784-100.403-38.2-11.74-74.205-22.933-85.401-42.136-11.417-19.642-8.892-47.623-6.367-77.14 4.171-46.855 8.342-95.355-37.432-123.775-55.873-34.675-126.785 41.477-178.707 97.111-18.551 19.97-34.578 37.088-47.531 46.964-25.137 18.983-62.679 6.364-99.013-5.816-35.236-11.851-68.497-23.043-84.853-2.414-14.599 18.325-18.551 42.027-12.294 72.422 5.489 26.555 18.222 54.865 29.419 79.774 12.404 27.761 23.161 51.682 23.051 69.02-.219 20.41-12.074 44.66-24.698 70.337-19.32 39.503-41.384 84.382-26.345 126.628 3.952 11.302 10.977 19.313 20.747 23.811 30.736 14.046 84.853-6.912 132.493-25.567 23.491-9.107 45.665-17.776 62.569-21.177 1.976-.549 4.062-.769 6.148-.769z" fill="#95BEB3"/><path d="M14.568 337.748c-38.969 0-70.583-38.735-98.904-73.3-11.855-14.594-23.161-28.31-34.248-38.515-14.161-12.948-26.784-18.105-38.749-15.581-14.6 3.072-33.261 9.875-53.019 17.008-44.238 16.02-94.294 34.235-122.614 20.19-9.331-4.609-15.807-12.729-19.32-23.921-11.965-38.735 8.342-79.993 26.235-116.314 11.855-23.921 22.942-46.525 23.601-65.618.549-15.363-8.782-36.87-19.649-61.778-9.55-21.946-20.417-46.855-25.138-70.447-5.269-27.103-1.536-48.281 11.526-64.85 15.149-19.203 45.006-9.547 76.511.658 31.614 10.205 64.435 20.739 85.95 4.17 11.416-8.779 25.686-24.141 42.042-41.807 23.711-25.458 50.495-54.317 78.047-73.629 32.163-22.495 58.837-26.994 81.34-13.936 41.384 24.141 39.518 66.387 37.871 107.206-1.097 26.006-2.195 50.695 8.672 68.252 10.319 16.789 41.494 27.213 74.535 38.296 54.885 18.435 117.125 39.174 104.392 95.794-10.977 48.94-63.997 63.424-110.759 76.153-35.566 9.656-69.046 18.873-79.913 41.478-9.66 20.19-5.16 51.134-.769 80.871 6.916 47.293 14.051 96.233-33.37 107.645-4.83 1.426-9.66 1.975-14.27 1.975zm-165.974-129.481c10.648 0 21.735 5.486 33.92 16.569 11.196 10.205 22.503 24.031 34.358 38.625 31.285 38.296 66.85 81.749 111.527 70.995 45.994-11.083 38.969-59.254 32.163-105.889-4.391-30.066-9.001-61.12.988-81.859 11.196-23.263 45.006-32.48 80.901-42.246 46.323-12.619 98.794-26.993 109.661-74.946 12.404-55.084-49.068-75.713-103.404-93.928-33.371-11.193-64.765-21.727-75.413-38.954-10.977-17.996-9.989-42.795-8.891-69.13 1.756-40.271 3.513-81.969-36.993-105.67C-22.096-307.135-84.445-239.98-130-191.041c-16.466 17.777-30.736 33.029-42.262 41.917-22.174 17.118-55.324 6.364-87.378-3.95-31.065-9.986-60.373-19.532-74.863-1.207-28.65 36.32-6.147 88.003 13.831 133.651 10.977 25.018 20.417 46.635 19.759 62.436-.659 19.422-11.965 42.137-23.821 66.277-17.782 36.101-37.98 77.031-26.125 115.107 3.403 10.863 9.44 18.435 18.551 22.934 27.772 13.935 77.498-4.17 121.407-20.081 19.868-7.242 38.529-14.046 53.239-17.118a30.293 30.293 0 016.256-.658z" fill="#85AAB7"/><path d="M-17.485 303.841c-34.578 0-62.68-30.834-87.817-58.595-10.428-11.412-20.198-22.166-29.858-30.176-12.623-10.424-24.039-14.375-34.907-12.07-12.074 2.633-27.113 7.681-43.03 12.948-29.309 9.766-61.471 20.519-86.719 20.519-9.769 0-18.551-1.646-25.686-5.486-8.562-4.719-14.38-12.509-17.124-23.373-8.892-34.674 9.66-71.873 26.015-104.792 11.087-22.385 21.625-43.563 22.833-61.558.878-13.717-7.465-33.687-16.356-54.865C-326.819-53.33-345.7-98.43-320.453-130.69c13.283-17.008 39.298-9.108 66.741-.768 27.223 8.339 55.434 16.898 73.986 2.304 9.989-7.901 22.283-21.178 36.553-36.54 20.527-22.166 43.689-47.294 67.619-64.192 27.992-19.861 51.153-24.25 70.912-13.607 36.334 19.532 36.993 55.085 37.542 89.54.439 22.604.768 44.002 11.086 59.803 9.66 14.813 36.225 24.58 64.326 35.004 48.189 17.776 102.746 37.857 90.232 89.65-10.319 42.574-56.313 55.852-96.818 67.703-31.175 9.107-60.594 17.666-70.473 37.747-8.782 17.776-5.379 44.66-2.086 70.556 5.16 41.258 10.538 83.943-30.845 95.136-5.489 1.536-10.758 2.194-15.807 2.194zM-163.92 200.586c9.44 0 19.319 4.389 29.967 13.167 9.77 8.12 19.539 18.874 29.967 30.395 28.54 31.383 60.923 66.936 101.758 55.853C37.62 289.247 32.35 247.331 27.3 206.84c-3.293-26.225-6.696-53.329 2.305-71.653 10.319-20.849 40.067-29.518 71.681-38.735 42.042-12.18 85.401-24.909 95.5-66.387 12.185-50.146-41.603-70.007-89.024-87.455C79.333-67.924 52.439-77.8 42.45-93.052c-10.648-16.35-10.978-37.966-11.417-60.79-.548-33.907-1.207-68.911-36.663-88.004-43.14-23.262-97.037 35.004-136.335 77.47-14.271 15.472-26.675 28.749-36.774 36.759-19.209 15.143-47.969 6.365-75.632-2.085-26.893-8.229-52.25-15.91-64.764.11-24.589 31.383-5.928 75.933 10.538 115.217 9.33 22.275 17.453 41.587 16.575 55.742-1.207 18.435-11.745 39.723-22.942 62.327-16.246 32.59-34.578 69.569-25.796 103.585 2.634 10.424 8.013 17.667 16.246 22.166 24.918 13.496 70.582-1.646 110.868-15.143 15.917-5.267 31.065-10.315 43.25-12.948 2.086-.549 4.281-.768 6.477-.768z" fill="#7596BB"/><path d="M-50.197 270.045c-29.858 0-54.227-23.044-76.181-43.783-8.891-8.339-17.234-16.24-25.357-22.165-10.867-7.901-21.405-10.754-31.065-8.559-9.221 2.085-20.308 5.377-31.943 8.888-35.676 10.644-80.133 23.921-103.185 9.985-7.903-4.828-12.953-12.618-15.038-23.153-5.928-30.395 10.098-62.326 25.576-93.16 10.428-20.849 20.417-40.6 22.064-57.718 1.208-11.96-5.708-29.408-13.063-47.843-13.392-33.577-28.43-71.653-7.135-99.086 11.526-14.923 33.59-8.668 56.971-2.085 22.942 6.475 46.543 13.058 62.021.549 8.672-7.023 18.99-18.325 31.065-31.383 17.344-18.873 36.993-40.271 57.19-54.865 23.71-17.118 43.47-21.507 60.484-13.387C-6.289-192.687-3.325-163.608-.47-135.408c1.866 18.106 3.732 36.98 13.612 51.025 8.891 12.728 30.845 21.836 54.117 31.382 41.493 17.228 88.585 36.65 76.071 83.725-9.66 36.1-48.519 48.39-82.877 59.254C33.668 98.427 8.31 106.437-.69 124.104c-7.794 15.362-5.599 38.186-3.513 60.351 3.403 35.333 6.916 71.764-28.32 82.627-5.928 2.085-11.966 2.963-17.674 2.963zm-126.236-77.25c8.342 0 17.014 3.182 25.906 9.656 8.232 5.925 16.685 13.936 25.576 22.275 21.625 20.52 45.665 43.234 74.864 43.234 5.598 0 11.306-.878 17.234-2.634 33.7-10.424 30.297-45.977 26.894-80.542-2.196-22.385-4.391-45.538 3.622-61.448 9.44-18.545 35.127-26.665 62.35-35.224 35.456-11.192 72.119-22.714 81.45-57.827 12.075-45.319-34.139-64.412-74.864-81.31C43.11-60.791 20.825-69.9 11.604-83.176 1.395-97.77-.471-116.754-2.336-135.188c-2.855-27.542-5.709-56.072-36.225-70.666-36.774-17.557-80.352 29.737-115.26 67.813-12.074 13.167-22.503 24.47-31.284 31.602-16.356 13.168-40.506 6.364-63.887-.11-22.722-6.364-44.128-12.399-54.775 1.427-20.637 26.445-5.709 63.972 7.354 97.001 7.794 19.532 14.49 36.32 13.173 48.83-1.757 17.557-11.746 37.418-22.284 58.486-15.368 30.505-31.175 62.107-25.357 91.844 1.976 10.095 6.586 17.228 14.051 21.727 22.283 13.496 66.192.329 101.538-10.205 11.745-3.512 22.722-6.804 32.053-8.888 2.305-.659 4.5-.878 6.806-.878z" fill="#6582BF"/><path d="M-84.226 236.796c-24.589 0-44.896-15.252-63.338-29.188-7.245-5.486-14.05-10.644-20.637-14.374-9.44-5.377-18.551-7.133-27.332-5.158-5.599 1.317-11.965 2.963-18.552 4.719-33.48 8.888-75.193 19.861-96.269 5.486-7.354-5.047-11.635-12.838-12.843-23.263-2.964-26.115 11.197-54.096 25.028-81.2 9.879-19.422 19.21-37.747 21.515-54.097 1.427-10.204-3.952-24.908-9.66-40.6-9.989-27.432-21.405-58.596-3.952-81.2 9.77-12.729 27.882-8.23 47.202-3.511 18.551 4.499 37.651 9.217 50.165-1.207 7.245-6.035 16.136-15.801 25.577-26.116 28.979-31.712 65.094-71.215 96.927-58.705 27.114 10.643 32.053 32.589 37.322 55.742 3.293 14.485 6.696 29.408 15.917 41.588 8.123 10.644 25.357 18.873 43.58 27.542 35.016 16.68 74.753 35.553 62.13 78.238-8.782 29.736-39.299 40.38-68.827 50.695-22.503 7.9-43.689 15.252-51.812 30.615-6.915 12.948-5.818 31.821-4.72 50.146 1.647 29.298 3.403 59.583-25.906 70.118-7.574 2.523-14.71 3.73-21.515 3.73zm-104.063-51.902c6.916 0 14.051 2.085 21.296 6.255 6.696 3.84 13.612 9.107 20.966 14.594 22.942 17.337 49.068 36.979 82.548 25.018 27.552-9.875 25.906-39.283 24.369-67.703-1.098-18.654-2.196-37.857 5.05-51.354 8.562-16.13 30.186-23.701 53.128-31.712 28.98-10.095 58.947-20.629 67.4-49.159C98.542-9.877 59.793-28.31 25.545-44.66 6.994-53.439-10.46-61.779-18.912-72.86c-9.55-12.62-12.953-27.762-16.356-42.466-5.05-22.604-9.88-43.892-35.895-54.097-30.297-11.96-65.863 26.884-94.293 58.157-9.88 10.863-18.442 20.19-25.796 26.335-13.392 11.193-33.151 6.365-52.251 1.756-18.442-4.5-35.895-8.778-44.787 2.633-16.685 21.617-5.488 52.122 4.281 79.006 5.818 15.91 11.307 30.944 9.77 41.697-2.415 16.789-11.746 35.224-21.735 54.865-13.611 26.774-27.772 54.426-24.808 79.884 1.098 9.875 5.05 17.008 11.855 21.616 20.198 13.826 61.362 2.963 94.403-5.815 6.696-1.756 12.953-3.402 18.661-4.719 2.415-.768 4.94-1.097 7.574-1.097z" fill="#546EC2"/><path d="M-120.67 204.316c-18.771 0-34.578-7.9-48.189-14.703-5.489-2.744-10.758-5.377-15.697-7.243-7.904-3.072-15.917-3.621-23.601-1.646-27.662 6.804-73.876 18.216-94.513 2.305-7.025-5.377-10.647-13.607-10.867-24.251-.329-21.726 12.185-45.757 24.259-69.02 9.331-17.995 18.222-35.113 21.296-50.695 1.646-8.34-2.196-20.41-6.257-33.138-6.806-21.398-14.49-45.648-.878-63.644 7.903-10.534 22.173-7.79 37.322-4.938 14.16 2.634 28.76 5.377 38.31-2.962 5.708-5.048 12.733-12.729 19.978-20.849 22.613-25.018 50.824-56.072 76.071-49.269 23.71 6.474 30.736 22.934 38.31 40.38 4.5 10.316 9.002 21.069 17.344 30.835 7.025 8.34 19.54 15.472 32.822 23.043 28.87 16.35 61.471 34.894 48.518 73.41C25.655 55.303 1.834 64.85-21.327 74.067c-18.112 7.242-35.237 14.155-42.591 27.103-5.928 10.534-6.038 24.909-6.038 40.161-.11 23.373-.22 47.513-23.38 57.279-9.77 4.06-18.881 5.706-27.334 5.706zm-78.486-27.322c5.159 0 10.319.987 15.478 2.962 5.049 1.975 10.428 4.609 15.917 7.352 20.307 10.095 43.359 21.617 73.436 8.888 21.515-9.107 21.625-32.48 21.735-54.974.11-14.814.11-30.176 6.367-41.369 7.684-13.716 25.247-20.738 43.798-28.2 22.503-8.998 45.884-18.435 53.349-40.6C43.218-5.487 12.92-22.605-16.387-39.284c-13.502-7.681-26.236-14.814-33.59-23.592C-58.43-72.971-63.15-83.835-67.65-94.37c-7.575-17.666-14.16-32.809-36.554-38.954-23.711-6.474-51.263 24.031-73.437 48.5-7.354 8.12-14.38 15.802-20.198 21.07-10.538 9.216-25.686 6.363-40.505 3.62-14.27-2.743-27.772-5.267-34.797 3.95-12.844 16.899-5.379 40.49 1.317 61.34 4.171 13.057 8.013 25.347 6.257 34.345-3.074 16.02-12.075 33.248-21.515 51.463-11.965 22.934-24.26 46.745-23.93 67.813.109 9.876 3.512 17.338 9.769 22.276 19.649 15.142 65.094 3.95 92.318-2.744 3.293-.987 6.476-1.316 9.769-1.316z" fill="#445AC6"/></g><g opacity=".32" clip-path="url(#clip2)"><path d="M424.686 1201c-47.421 0-85.841-54.21-120.089-102.49-30.626-43.23-59.496-83.94-89.354-78.02-18.99 3.73-44.457 14.27-71.351 25.24-51.812 21.29-110.649 45.54-144.897 30.84-10.977-4.72-18.88-13.17-23.6-25.35-18.333-46.86 5.597-95.796 26.564-138.92 13.282-27.213 25.796-52.89 25.576-74.067-.22-18.655-12.184-44.77-26.125-74.946-12.843-27.981-27.443-59.693-33.92-89.649-7.464-34.565-2.963-61.449 13.612-82.298 18.661-23.482 56.313-10.424 96.05 3.402 40.395 14.045 82.218 28.53 109.77 7.9 14.271-10.643 32.273-29.956 53.02-52.121 29.967-32.042 63.996-68.472 98.903-92.283 40.725-27.872 74.095-32.59 101.977-14.485 51.812 33.687 44.567 91.735 38.2 143.088-4.061 32.7-7.793 63.534 3.733 84.383 11.525 20.739 51.921 32.37 94.732 44.66 68.497 19.751 146.214 42.026 133.042 108.303-12.294 61.778-79.364 78.347-138.531 92.941-44.237 10.973-86.06 21.288-98.684 48.721-11.635 25.128-4.72 64.081 1.866 101.721 10.429 59.25 21.186 120.59-38.31 132.33-4.061.77-8.123 1.1-12.184 1.1zm-203.625-182.26c28.321 0 55.654 38.51 84.414 79.11 36.883 52.13 78.815 111.16 131.286 100.85 26.564-5.27 40.725-20.19 44.567-47.3 3.402-23.92-1.976-54.31-7.136-83.83-6.586-37.75-13.501-76.922-1.756-102.27 12.843-27.981 54.886-38.296 99.452-49.379 58.838-14.594 125.578-31.053 137.763-92.173 12.953-65.289-64.106-87.455-132.274-107.096-43.03-12.4-83.645-24.031-95.391-45.209-11.745-21.178-7.903-52.231-3.842-85.041 6.257-51.024 13.392-108.742-37.761-141.99-62.02-40.271-141.494 44.55-199.563 106.548-20.857 22.275-38.859 41.587-53.239 52.341-27.992 20.958-70.034 6.364-110.759-7.681-39.407-13.717-76.62-26.555-94.842-3.731l-.439-.329.44.329c-36.884 46.306-5.05 115.326 20.417 170.849 13.94 30.286 26.015 56.511 26.235 75.385.22 21.397-12.294 47.184-25.686 74.506-20.967 43.015-44.677 91.731-26.565 138.041 4.61 11.85 12.404 20.19 23.052 24.8 33.81 14.48 92.427-9.66 144.019-30.95 27.004-11.08 52.471-21.61 71.571-25.34 1.976-.22 4.061-.44 6.037-.44z" fill="#A5D2AF"/><path d="M393.292 1166.87c-43.25 0-78.377-46.41-109.552-87.89-13.392-17.78-26.015-34.56-38.639-46.85-15.917-15.7-29.419-21.73-42.591-19.1-16.905 3.4-38.969 12.07-62.35 21.18-47.97 18.65-102.306 39.83-133.59 25.46-10.1-4.61-17.345-12.95-21.516-24.58-15.148-42.796 6.916-87.895 26.455-127.727 12.514-25.567 24.369-49.708 24.588-69.789.22-17.008-10.538-40.819-22.942-68.471-11.196-25.019-23.93-53.219-29.418-79.993-6.367-30.834-2.305-54.865 12.514-73.519 16.904-21.398 50.604-9.986 86.39 1.975 36.004 12.07 73.216 24.579 97.805 6.035 12.733-9.766 28.76-26.884 47.311-46.745 26.894-28.749 57.301-61.449 88.585-83.066 36.554-25.237 66.521-29.846 91.769-14.264 46.542 28.859 42.042 79.993 38.09 124.982-2.634 29.408-5.049 57.169 6.147 76.372 10.977 18.764 46.763 29.847 84.633 41.588 61.692 19.093 131.616 40.6 118.663 101.939-11.636 55.304-71.681 70.885-124.7 84.602-39.847 10.314-77.498 20.08-89.244 45.099-10.647 22.714-4.939 57.502.549 91.182 8.672 53.33 17.673 108.42-35.895 120.05-4.391 1.1-8.781 1.53-13.062 1.53zm-184.854-155.81c11.635 0 23.71 6.47 37.541 20.08 12.624 12.51 25.357 29.3 38.749 47.07 31.065 41.15 65.972 87.35 108.564 87.35 4.171 0 8.452-.44 12.843-1.43 23.71-5.16 36.553-18.87 40.286-43.23 3.293-21.62-1.098-48.83-5.379-75.28-5.489-33.9-11.197-69.018-.439-92.061 12.075-25.567 49.945-35.443 90.122-45.757 52.58-13.607 112.185-29.079 123.711-83.615 12.734-60.132-56.642-81.529-117.784-100.403-38.2-11.741-74.205-22.933-85.401-42.136-11.417-19.642-8.892-47.623-6.367-77.14 4.171-46.855 8.342-95.355-37.432-123.775-55.873-34.675-126.785 41.477-178.707 97.111-18.551 19.97-34.578 37.088-47.531 46.964-25.137 18.983-62.679 6.364-99.013-5.816-35.236-11.851-68.497-23.043-84.853-2.414-14.6 18.325-18.55 42.027-12.294 72.422 5.489 26.555 18.222 54.865 29.419 79.774 12.404 27.761 23.161 51.682 23.052 69.02-.22 20.41-12.075 44.66-24.699 70.337-19.32 39.503-41.384 84.382-26.345 126.629 3.952 11.3 10.977 19.31 20.747 23.81 30.736 14.05 84.852-6.91 132.493-25.57 23.491-9.1 45.665-17.77 62.569-21.17 1.976-.55 4.062-.77 6.148-.77z" fill="#95BEB3"/><path d="M361.568 1132.75c-38.969 0-70.583-38.74-98.904-73.3-11.855-14.6-23.161-28.31-34.248-38.52-14.161-12.94-26.784-18.1-38.749-15.58-14.6 3.07-33.261 9.88-53.02 17.01-44.237 16.02-94.293 34.24-122.613 20.19-9.331-4.61-15.807-12.73-19.32-23.92-11.965-38.736 8.342-79.994 26.235-116.315 11.855-23.921 22.942-46.525 23.6-65.618.55-15.363-8.78-36.87-19.648-61.778-9.55-21.946-20.418-46.855-25.138-70.447-5.269-27.103-1.536-48.281 11.526-64.85 15.149-19.203 45.006-9.547 76.51.658 31.614 10.205 64.436 20.739 85.951 4.17 11.416-8.779 25.686-24.141 42.042-41.807 23.711-25.458 50.495-54.317 78.047-73.629 32.163-22.495 58.837-26.994 81.34-13.936 41.384 24.141 39.518 66.387 37.871 107.206-1.097 26.006-2.195 50.695 8.672 68.252 10.319 16.789 41.494 27.213 74.535 38.296 54.885 18.435 117.125 39.174 104.392 95.794-10.978 48.94-63.997 63.424-110.759 76.153-35.566 9.656-69.046 18.873-79.913 41.478-9.66 20.19-5.159 51.134-.769 80.873 6.916 47.29 14.051 96.23-33.37 107.64-4.83 1.43-9.66 1.98-14.27 1.98zm-165.974-129.48c10.648 0 21.735 5.48 33.92 16.57 11.196 10.2 22.503 24.03 34.358 38.62 31.284 38.3 66.85 81.75 111.527 71 45.994-11.09 38.969-59.26 32.163-105.89-4.391-30.069-9.001-61.123.988-81.862 11.196-23.263 45.006-32.48 80.901-42.246 46.323-12.619 98.794-26.993 109.661-74.945 12.404-55.085-49.068-75.714-103.404-93.929-33.371-11.193-64.765-21.727-75.413-38.954-10.977-17.996-9.989-42.795-8.891-69.13 1.756-40.271 3.512-81.969-36.993-105.67C324.904 487.865 262.555 555.02 217 603.959c-16.466 17.777-30.736 33.029-42.262 41.917-22.174 17.118-55.325 6.365-87.378-3.95-31.065-9.986-60.373-19.532-74.863-1.207-28.65 36.321-6.147 88.003 13.83 133.651 10.978 25.018 20.418 46.635 19.76 62.436-.659 19.423-11.965 42.137-23.82 66.277C4.482 939.184-15.715 980.114-3.86 1018.19c3.403 10.86 9.44 18.43 18.551 22.93 27.772 13.94 77.498-4.17 121.407-20.08 19.868-7.24 38.529-14.04 53.238-17.11 2.086-.44 4.172-.66 6.257-.66z" fill="#85AAB7"/><path d="M329.515 1098.84c-34.578 0-62.679-30.83-87.817-58.59-10.428-11.42-20.198-22.17-29.858-30.18-12.623-10.424-24.039-14.375-34.907-12.07-12.074 2.63-27.113 7.68-43.03 12.95-29.309 9.76-61.471 20.52-86.719 20.52-9.77 0-18.551-1.65-25.686-5.49-8.562-4.72-14.38-12.51-17.124-23.37-8.892-34.676 9.66-71.875 26.015-104.794 11.087-22.385 21.625-43.563 22.833-61.558.878-13.717-7.465-33.687-16.356-54.865C20.18 741.67 1.3 696.571 26.547 664.311c13.283-17.008 39.298-9.108 66.741-.768 27.223 8.339 55.434 16.898 73.985 2.304 9.99-7.901 22.284-21.178 36.554-36.54 20.527-22.166 43.689-47.294 67.619-64.192 27.992-19.861 51.153-24.25 70.912-13.607 36.334 19.532 36.993 55.085 37.542 89.54.439 22.604.768 44.002 11.086 59.803 9.66 14.813 36.225 24.579 64.326 35.004 48.189 17.776 102.746 37.857 90.232 89.649-10.319 42.575-56.313 55.853-96.818 67.703-31.175 9.108-60.594 17.667-70.473 37.748-8.782 17.776-5.379 44.66-2.086 70.555 5.16 41.26 10.538 83.94-30.845 95.14-5.489 1.53-10.758 2.19-15.807 2.19zM183.081 995.586c9.44 0 19.319 4.389 29.967 13.164 9.77 8.12 19.539 18.88 29.967 30.4 28.541 31.38 60.923 66.93 101.758 55.85 39.847-10.75 34.578-52.67 29.528-93.16-3.293-26.225-6.696-53.329 2.305-71.653 10.319-20.849 40.067-29.518 71.681-38.735 42.042-12.18 85.401-24.909 95.5-66.387 12.185-50.146-41.603-70.008-89.024-87.455-28.43-10.534-55.324-20.409-65.313-35.662-10.648-16.35-10.977-37.966-11.417-60.79-.548-33.907-1.207-68.911-36.663-88.004-43.14-23.262-97.037 35.004-136.335 77.47-14.271 15.472-26.675 28.749-36.774 36.759-19.209 15.143-47.969 6.365-75.632-2.085-26.894-8.229-52.25-15.91-64.764.11-24.589 31.383-5.928 75.933 10.538 115.217 9.33 22.275 17.453 41.587 16.575 55.742-1.208 18.435-11.745 39.723-22.942 62.327C15.79 931.284-2.542 968.263 6.24 1002.28c2.634 10.42 8.013 17.67 16.246 22.16 24.918 13.5 70.582-1.64 110.868-15.14 15.917-5.27 31.065-10.313 43.25-12.946 2.086-.549 4.281-.768 6.477-.768z" fill="#7596BB"/><path d="M296.803 1065.04c-29.858 0-54.227-23.04-76.181-43.78-8.891-8.34-17.234-16.24-25.357-22.163-10.867-7.901-21.405-10.754-31.065-8.559-9.221 2.085-20.308 5.377-31.943 8.888-35.676 10.644-80.133 23.924-103.185 9.984-7.903-4.83-12.953-12.617-15.038-23.152-5.928-30.395 10.098-62.326 25.576-93.16 10.428-20.849 20.418-40.6 22.064-57.718 1.208-11.961-5.708-29.408-13.063-47.843-13.392-33.577-28.43-71.653-7.135-99.086 11.526-14.923 33.59-8.668 56.971-2.085 22.942 6.475 46.543 13.058 62.021.549 8.672-7.023 18.99-18.325 31.065-31.383 17.344-18.873 36.993-40.271 57.19-54.865 23.711-17.118 43.47-21.507 60.484-13.387 31.504 15.033 34.468 44.112 37.322 72.312 1.866 18.106 3.732 36.979 13.612 51.025 8.891 12.728 30.845 21.836 54.117 31.383 41.493 17.227 88.585 36.649 76.071 83.723-9.66 36.102-48.519 48.391-82.877 59.255-26.784 8.449-52.141 16.459-61.142 34.126-7.794 15.362-5.599 38.186-3.513 60.351 3.403 35.335 6.916 71.765-28.321 82.625-5.928 2.09-11.965 2.96-17.673 2.96zm-126.236-77.245c8.342 0 17.014 3.182 25.906 9.656 8.232 5.929 16.685 13.939 25.576 22.279 21.625 20.52 45.665 43.23 74.864 43.23 5.598 0 11.306-.88 17.234-2.63 33.699-10.43 30.297-45.98 26.894-80.546-2.196-22.385-4.391-45.538 3.622-61.448 9.44-18.545 35.127-26.665 62.35-35.224 35.456-11.192 72.119-22.714 81.45-57.827 12.075-45.319-34.139-64.412-74.864-81.31-23.491-9.766-45.774-18.874-54.995-32.151-10.209-14.594-12.075-33.578-13.941-52.012-2.854-27.542-5.708-56.072-36.224-70.666-36.774-17.557-80.352 29.737-115.26 67.813-12.074 13.167-22.503 24.47-31.284 31.602-16.356 13.168-40.506 6.364-63.887-.11-22.722-6.364-44.128-12.399-54.775 1.427-20.637 26.445-5.708 63.972 7.354 97.001 7.794 19.532 14.49 36.321 13.173 48.83-1.757 17.557-11.746 37.418-22.284 58.486-15.368 30.505-31.175 62.107-25.357 91.844 1.976 10.095 6.586 17.231 14.05 21.731 22.284 13.49 66.193.32 101.539-10.209 11.745-3.512 22.722-6.804 32.053-8.888 2.305-.659 4.5-.878 6.806-.878z" fill="#6582BF"/><path d="M262.774 1031.8c-24.589 0-44.896-15.26-63.338-29.19-7.245-5.488-14.05-10.646-20.637-14.376-9.44-5.377-18.551-7.133-27.332-5.158-5.599 1.317-11.965 2.963-18.552 4.719-33.48 8.888-75.193 19.865-96.269 5.486-7.354-5.047-11.635-12.838-12.843-23.263-2.964-26.115 11.197-54.096 25.028-81.2 9.88-19.422 19.21-37.747 21.515-54.097 1.427-10.204-3.952-24.908-9.66-40.6-9.989-27.432-21.405-58.595-3.952-81.2 9.77-12.729 27.882-8.23 47.202-3.511 18.551 4.499 37.651 9.217 50.165-1.207 7.245-6.035 16.136-15.801 25.577-26.116 28.979-31.712 65.094-71.215 96.927-58.705 27.114 10.643 32.053 32.589 37.322 55.742 3.293 14.485 6.696 29.408 15.917 41.588 8.123 10.644 25.357 18.874 43.579 27.542 35.017 16.679 74.754 35.553 62.13 78.238-8.781 29.736-39.298 40.38-68.826 50.695-22.503 7.9-43.689 15.252-51.812 30.615-6.915 12.948-5.818 31.821-4.72 50.146 1.647 29.298 3.403 59.582-25.906 70.122-7.574 2.52-14.709 3.73-21.515 3.73zm-104.063-51.906c6.916 0 14.051 2.085 21.296 6.255 6.696 3.84 13.612 9.107 20.966 14.591 22.942 17.34 49.068 36.98 82.548 25.02 27.552-9.87 25.906-39.282 24.369-67.702-1.098-18.654-2.196-37.857 5.049-51.354 8.562-16.13 30.187-23.701 53.129-31.712 28.98-10.095 58.947-20.629 67.4-49.159 12.074-40.71-26.675-59.144-60.923-75.494-18.551-8.778-36.005-17.118-44.457-28.201-9.55-12.618-12.953-27.761-16.356-42.465-5.05-22.604-9.879-43.892-35.895-54.097-30.297-11.96-65.863 26.884-94.293 58.157-9.88 10.863-18.442 20.19-25.796 26.335-13.392 11.193-33.151 6.365-52.251 1.756-18.442-4.499-35.895-8.779-44.787 2.633-16.685 21.617-5.488 52.122 4.281 79.006 5.818 15.911 11.307 30.944 9.77 41.697-2.415 16.789-11.746 35.224-21.735 54.865-13.611 26.774-27.772 54.426-24.808 79.884 1.098 9.875 5.05 17.008 11.855 21.616 20.198 13.825 61.362 2.963 94.403-5.815 6.696-1.756 12.953-3.402 18.661-4.719 2.415-.768 4.94-1.097 7.574-1.097z" fill="#546EC2"/><path d="M226.33 999.316c-18.771 0-34.578-7.9-48.189-14.703-5.489-2.744-10.758-5.377-15.697-7.243-7.904-3.072-15.917-3.621-23.601-1.646-27.662 6.804-73.876 18.216-94.513 2.305-7.025-5.377-10.648-13.607-10.867-24.251-.33-21.726 12.184-45.757 24.26-69.02 9.33-17.995 18.221-35.113 21.295-50.695 1.646-8.339-2.196-20.41-6.257-33.138-6.806-21.398-14.49-45.648-.878-63.644 7.903-10.534 22.173-7.791 37.322-4.938 14.16 2.634 28.76 5.377 38.31-2.962 5.708-5.048 12.733-12.729 19.978-20.849 22.613-25.018 50.824-56.072 76.071-49.269 23.711 6.474 30.736 22.934 38.31 40.381 4.501 10.314 9.001 21.068 17.344 30.834 7.025 8.339 19.539 15.472 32.821 23.043 28.87 16.35 61.472 34.894 48.519 73.41-7.903 23.372-31.724 32.919-54.885 42.136-18.112 7.242-35.237 14.155-42.591 27.103-5.928 10.534-6.038 24.909-6.038 40.161-.109 23.373-.219 47.513-23.381 57.279-9.769 4.06-18.88 5.706-27.333 5.706zm-78.486-27.322c5.159 0 10.319.987 15.478 2.962 5.049 1.975 10.428 4.609 15.917 7.352 20.307 10.095 43.359 21.622 73.436 8.888 21.515-9.107 21.625-32.48 21.735-54.974.11-14.814.11-30.176 6.366-41.369 7.684-13.716 25.248-20.738 43.799-28.2 22.503-8.998 45.884-18.435 53.349-40.6 12.294-36.54-18.003-53.658-47.312-70.337-13.501-7.681-26.235-14.814-33.589-23.592-8.453-10.095-13.173-20.958-17.674-31.493-7.574-17.666-14.16-32.809-36.553-38.954-23.711-6.474-51.263 24.031-73.437 48.501-7.354 8.12-14.38 15.801-20.198 21.068-10.538 9.217-25.686 6.364-40.505 3.621-14.27-2.743-27.772-5.267-34.797 3.95-12.844 16.899-5.38 40.491 1.317 61.34 4.171 13.057 8.013 25.347 6.257 34.345-3.074 16.021-12.075 33.248-21.515 51.463-11.965 22.934-24.26 46.745-23.93 67.813.11 9.876 3.512 17.338 9.77 22.276 19.648 15.142 65.093 3.95 92.316-2.744 3.294-.987 6.477-1.316 9.77-1.316z" fill="#445AC6"/></g></g><defs><clipPath id="clip0"><path fill="#fff" d="M0 0h375v667H0z"/></clipPath><clipPath id="clip1"><path fill="#fff" transform="translate(-383 -362)" d="M0 0h748v768H0z"/></clipPath><clipPath id="clip2"><path fill="#fff" transform="translate(-36 433)" d="M0 0h748v768H0z"/></clipPath></defs></svg>