<svg width="22" height="22" fill="none" xmlns="http://www.w3.org/2000/svg"><path fill-rule="evenodd" clip-rule="evenodd" d="M19.227 14.655l-.326-.168a1 1 0 01-.533-.771l-.11-.922a1.5 1.5 0 00-.962-1.229l-1.618-.606a1 1 0 01-.58-.57l-.804-2.039a1 1 0 01.793-1.358l1.323-.183a1.5 1.5 0 001.015-.614l.592-.83A8.983 8.983 0 0010.855 2l.321 1.71a.786.786 0 01-.823.93A1.346 1.346 0 009 5.526l-.243.674a1 1 0 01-1.225.62l-.441-.13a1.072 1.072 0 00-1.185.416 1.191 1.191 0 00-.039 1.299l.71 1.166a1.5 1.5 0 001.282.72h1.245a1 1 0 01.452.108l1.335.677a1 1 0 01.54.765l.012.099c.051.396.271.752.604.973l.727.486a1 1 0 01.163 1.527l-1.144 1.182a1.5 1.5 0 00-.37.653l-.87 3.227a9.002 9.002 0 008.674-5.334zM6.849 18.988l.098-.796a1.5 1.5 0 00-.257-1.038l-1.465-2.11a.91.91 0 01.108-1.166.584.584 0 00-.118-.921L2.001 11.1a9 9 0 004.848 7.888zM11 22C4.925 22 0 17.075 0 11S4.925 0 11 0s11 4.925 11 11-4.925 11-11 11z" fill="#394452"/></svg>