<svg width="17" height="22" fill="none" xmlns="http://www.w3.org/2000/svg"><path fill-rule="evenodd" clip-rule="evenodd" d="M11.46 5.5H5.54a1.5 1.5 0 01-1.405-.973l-.892-2.378a1 1 0 00-.936-.649H1.5A1.5 1.5 0 000 3v13a6 6 0 006 6h5a6 6 0 006-6V3a1.5 1.5 0 00-1.5-1.5h-.807a1 1 0 00-.936.649l-.892 2.378a1.5 1.5 0 01-1.405.973zM3.577 8.693a.52.52 0 00.672-.023L6.09 7.1a.387.387 0 01.55.03.444.444 0 01.01.58l-2.155 2.539a.698.698 0 01-1.107-.04l-1.044-1.37a.472.472 0 01.025-.595.411.411 0 01.563-.051l.645.5zM7.5 8.5a1 1 0 100 2H13a1 1 0 100-2H7.5zM4 14a1 1 0 100-2 1 1 0 000 2zm3.5-2a1 1 0 100 2H13a1 1 0 100-2H7.5zM4 17.5a1 1 0 100-2 1 1 0 000 2zm3.5-2a1 1 0 100 2H13a1 1 0 100-2H7.5zM6.843 0h3.314c.584 0 1.13.281 1.453.75l.216.312a.97.97 0 01.1.926l-.574 1.383c-.157.38-.538.629-.962.629H6.61c-.424 0-.805-.249-.962-.629l-.574-1.383a.97.97 0 01.1-.926L5.39.75C5.714.281 6.259 0 6.843 0z" fill="#394452"/></svg>