<svg width="23" height="23" fill="none" xmlns="http://www.w3.org/2000/svg"><path fill-rule="evenodd" clip-rule="evenodd" d="M2.521 10.07a.933.933 0 00.12 1.175l6.186 6.18a.933.933 0 001.173.12l.343-.226a.933.933 0 00.146-1.44l-.015-.015a.279.279 0 01-.028-.364c.312-.42 1.057-1.415 1.453-1.888.223-.266 5.054 4.165 7.436 6.378a1.85 1.85 0 002.57-2.664c-2.301-2.333-6.793-7.006-6.289-7.427.474-.396 1.471-1.14 1.891-1.45a.279.279 0 01.363.027l.012.011a.933.933 0 001.44-.146l.227-.346a.933.933 0 00-.12-1.174L13.244.641A.933.933 0 0012.07.52l-.342.226a.933.933 0 00-.147 1.44l.02.019c.096.096.11.246.03.356-.412.568-1.713 2.31-3.236 3.831-1.522 1.52-3.267 2.82-3.835 3.231a.274.274 0 01-.356-.03l-.016-.015a.933.933 0 00-1.439.146l-.228.346zM1.627 21a1 1 0 00-.83.442l-.733 1.09a.3.3 0 00.25.468h14.383a.3.3 0 00.249-.467l-.733-1.09a1 1 0 00-.83-.443H1.627z" fill="#394452"/></svg>