<svg width="22" height="22" fill="none" xmlns="http://www.w3.org/2000/svg"><path fill-rule="evenodd" clip-rule="evenodd" d="M21.98 8.056l-1.874 9.7A5.238 5.238 0 0114.963 22H7.037a5.238 5.238 0 01-5.143-4.244L.02 8.056c-.08-.41.093-.828.437-1.063l9.952-6.81a1.048 1.048 0 011.184 0l9.952 6.81c.345.235.516.653.437 1.063zM11 14.869l1.948 1.728a.632.632 0 001.046-.562l-.414-2.97 1.883-1.422a.634.634 0 00-.257-1.127l-2.48-.498-1.16-2.334a.633.633 0 00-1.132 0l-1.16 2.334-2.48.498a.632.632 0 00-.257 1.127l1.883 1.422-.55 2.947a.634.634 0 001.024.604L11 14.868z" fill="#394452"/></svg>