<svg width="24" height="24" fill="none" xmlns="http://www.w3.org/2000/svg"><path fill-rule="evenodd" clip-rule="evenodd" d="M19.5 5A2.5 2.5 0 0122 7.5v10a2.5 2.5 0 01-2.5 2.5h-15A2.5 2.5 0 012 17.5v-10A2.5 2.5 0 014.5 5h15zm.833 2.5a.834.834 0 00-.833-.833H17v1.666A.834.834 0 0117 10v1.667a.834.834 0 010 1.666v5h2.5c.46 0 .833-.373.833-.833v-10zm-5 10.833v-5a.834.834 0 010-1.666V10a.834.834 0 010-1.667V6.667h-2.5V15a.834.834 0 010 1.667v1.666h2.5zm-4.166 0v-1.666a.834.834 0 010-1.667V6.667h-2.5v1.666a.834.834 0 010 1.667v1.667a.834.834 0 010 1.666v5h2.5zm-4.167 0v-5a.834.834 0 010-1.666V10a.834.834 0 010-1.667V6.667H4.5a.834.834 0 00-.833.833v10c0 .46.373.833.833.833H7z" fill="#8D94A0"/></svg>