<svg width="24" height="24" fill="none" xmlns="http://www.w3.org/2000/svg"><path fill-rule="evenodd" clip-rule="evenodd" d="M3.836 5.125l-.018.057.018.057.14.18c.166.163.452.352.88.531.852.355 2.091.595 3.508.595 1.416 0 2.655-.24 3.507-.595.428-.18.714-.368.88-.53l.14-.18.018-.058-.018-.057-.14-.18c-.165-.163-.452-.352-.88-.531-.852-.355-2.091-.596-3.507-.596-1.417 0-2.656.241-3.508.596-.428.179-.714.368-.88.53l-.14.18zm9.073 2.35c-.11.054-.224.105-.339.153-1.122.468-2.61.736-4.206.736-1.597 0-3.085-.268-4.207-.736a6.747 6.747 0 01-.339-.153v1.343l.018.057.14.18c.166.163.452.352.88.531.852.355 2.091.596 3.508.596 1.416 0 2.655-.241 3.507-.596.428-.179.714-.368.88-.53l.14-.18.018-.058V7.475zm0 3.637c-.11.053-.224.104-.339.152-1.122.469-2.61.736-4.206.736-1.597 0-3.085-.267-4.207-.736a6.615 6.615 0 01-.339-.152v1.342l.018.058.14.18c.166.162.452.352.88.53.852.355 2.091.596 3.508.596.54 0 1.058-.035 1.54-.099.37-.389.864-.692 1.385-.923a8.51 8.51 0 011.62-.515v-1.17zm1.818.917V5.182c0-.63-.31-1.15-.7-1.533-.385-.38-.898-.68-1.457-.914C11.448 2.267 9.96 2 8.364 2c-1.597 0-3.085.267-4.207.735-.56.233-1.072.534-1.457.914-.39.384-.7.903-.7 1.533V16.09c0 .63.31 1.149.7 1.533.385.38.897.68 1.457.913 1.122.469 2.61.736 4.207.736.324 0 .644-.011.956-.033.102.443.354.816.653 1.11.385.38.897.682 1.457.915 1.122.468 2.61.735 4.206.735 1.597 0 3.085-.267 4.207-.735.559-.233 1.072-.534 1.457-.914.39-.384.7-.903.7-1.533v-3.636c0-.63-.31-1.15-.7-1.533-.386-.38-.898-.68-1.457-.913-1.122-.469-2.61-.736-4.207-.736-.308 0-.611.01-.909.03zm5.455 5.447v1.342l-.018.057-.14.18c-.166.163-.452.352-.88.531-.852.355-2.091.596-3.508.596-1.416 0-2.655-.241-3.507-.596-.428-.179-.714-.368-.88-.53l-.14-.18-.018-.058v-1.343c.11.054.224.105.339.153 1.122.468 2.61.736 4.206.736 1.597 0 3.085-.268 4.207-.736.115-.048.228-.099.339-.152zm-10.91-1.869v1.814c-.293.022-.597.034-.908.034-1.417 0-2.656-.241-3.508-.596-.428-.179-.714-.368-.88-.53l-.14-.18-.018-.058v-1.343c.111.054.224.105.34.153 1.121.468 2.61.735 4.206.735.308 0 .611-.01.909-.029zm1.819-.425l.018.057.14.18c.165.163.452.352.88.531.852.355 2.091.596 3.507.596 1.417 0 2.656-.241 3.508-.596.428-.18.714-.368.88-.53l.14-.18.018-.058-.018-.058-.14-.18c-.166-.162-.452-.351-.88-.53-.852-.355-2.091-.596-3.508-.596-.594 0-1.162.043-1.685.12-.77.113-1.425.297-1.924.52-.518.23-.784.462-.889.617l-.047.107z" fill="#8D94A0"/></svg>