<svg width="24" height="24" fill="none" xmlns="http://www.w3.org/2000/svg"><path fill-rule="evenodd" clip-rule="evenodd" d="M10.607 3.473a1.558 1.558 0 012.63-.117l.074.117 2.143 3.743 4.224.883c.8.167 1.328.92 1.227 1.718l-.02.126a1.56 1.56 0 01-.283.621l-.088.107-2.88 3.176a.779.779 0 01-1.22-.963l.065-.084 2.88-3.176-4.908-1.026-2.492-4.35-2.493 4.35-4.908 1.026 3.368 3.715-.541 4.985 3.91-1.758a.78.78 0 01.726 1.376l-.087.046-3.91 1.757a1.558 1.558 0 01-2.197-1.424l.009-.165.466-4.29-2.898-3.195A1.558 1.558 0 013.41 8.57l.1-.1c.172-.155.375-.27.595-.337l.133-.034 4.223-.883 2.145-3.743zm5.566 12.39a.85.85 0 111.7 0v1.699h1.7a.85.85 0 110 1.7h-1.7v1.7a.85.85 0 11-1.7 0v-1.7h-1.7a.85.85 0 110-1.7h1.7v-1.7z" fill="#8D94A0"/></svg>