<svg width="24" height="24" fill="none" xmlns="http://www.w3.org/2000/svg"><path d="M12 5c-5.526 0-8.498 4.085-9.673 6.215a2.589 2.589 0 000 2.52c1.175 2.13 4.147 6.214 9.673 6.214s8.498-4.084 9.673-6.215a2.589 2.589 0 000-2.52C20.498 9.085 17.526 5 12 5zm0 1.869c4.225 0 6.66 2.928 7.779 4.783a1.579 1.579 0 01-.003 1.637c-1.123 1.851-3.57 4.792-7.776 4.792-4.225 0-6.66-2.928-7.778-4.783a1.58 1.58 0 01.002-1.638C5.348 9.809 7.794 6.869 12 6.869zm0 1.868a3.738 3.738 0 100 7.475 3.738 3.738 0 000-7.475zm0 1.869a1.868 1.868 0 110 3.737 1.868 1.868 0 010-3.737z" fill="#8D94A0"/></svg>