<svg width="24" height="24" fill="none" xmlns="http://www.w3.org/2000/svg"><path d="M4.912 3.274A.934.934 0 103.59 4.595l1.933 1.933c-.504.41-.953.848-1.354 1.286a14.188 14.188 0 00-1.841 2.606 2.596 2.596 0 00-.001 2.524C3.502 15.075 6.475 19.16 12 19.16c1.121 0 2.14-.169 3.055-.458a9.204 9.204 0 001.849-.792l2.184 2.184a.934.934 0 101.322-1.321L4.912 3.274zM12 4.208c-1.121 0-2.14.168-3.055.458l1.551 1.551c.467-.093.971-.14 1.504-.14 4.187 0 6.61 2.873 7.746 4.731a1.67 1.67 0 01-.003 1.75 11.933 11.933 0 01-1.239 1.668l1.327 1.326a14.195 14.195 0 001.841-2.605 2.597 2.597 0 00.001-2.525C20.498 8.292 17.525 4.208 12 4.208zM6.85 7.854L8.784 9.79a3.66 3.66 0 00-.522 1.894c0 .075 0 .16.01.234a3.729 3.729 0 003.494 3.495c.075.01.16.01.234.01a3.66 3.66 0 001.894-.523l1.617 1.617c-.606.29-1.28.512-2.007.633-.477.094-.971.14-1.504.14-4.187 0-6.61-2.872-7.746-4.73a1.675 1.675 0 010-1.752c.312-.507.722-1.09 1.242-1.666.382-.438.84-.876 1.354-1.287zm5.384.1l3.495 3.496a3.729 3.729 0 00-3.495-3.495zm-2.037 3.248l2.285 2.284a1.649 1.649 0 01-.482.066 1.874 1.874 0 01-1.869-1.869c0-.167.02-.333.066-.481z" fill="#8D94A0"/></svg>