<svg width="32" height="32" fill="none" xmlns="http://www.w3.org/2000/svg"><path fill-rule="evenodd" clip-rule="evenodd" d="M3.58 10.543V7.047A3.47 3.47 0 017.048 3.58h3.496a.79.79 0 000-1.581H7.047A5.052 5.052 0 002 7.047v3.496a.79.79 0 001.58 0zm6.963 17.876a.79.79 0 010 1.581H7.047A5.052 5.052 0 012 24.953v-3.496a.79.79 0 011.58 0v3.496a3.47 3.47 0 003.467 3.466h3.496zM30 21.457v3.496A5.052 5.052 0 0124.953 30h-3.496a.79.79 0 110-1.58h3.496a3.47 3.47 0 003.466-3.467v-3.496a.79.79 0 011.581 0zm0-14.41v3.496a.79.79 0 01-1.58 0V7.047a3.47 3.47 0 00-3.467-3.466h-3.496a.79.79 0 110-1.581h3.496A5.052 5.052 0 0130 7.047zm-8.436 16.187a.788.788 0 00.047-1.141.859.859 0 00-1.183-.045A6.64 6.64 0 0116 23.718a6.64 6.64 0 01-4.428-1.67.859.859 0 00-1.183.045.788.788 0 00.047 1.141 8.345 8.345 0 005.564 2.1c2.07 0 4.045-.746 5.564-2.1zM17.167 12.1v5.444c0 1.08-.919 1.957-2.047 1.957h-.652c-.443 0-.801-.343-.801-.766s.358-.765.8-.765h.653c.245 0 .445-.191.445-.426V12.1c0-.423.359-.766.8-.766.443 0 .802.343.802.766zM23 14.136v-2.105c0-.386-.261-.698-.583-.698-.323 0-.584.313-.584.698v2.105c0 .385.262.697.584.697.322 0 .583-.312.583-.697zm-14 0c0 .385.261.697.583.697.323 0 .584-.312.584-.697v-2.105c0-.386-.261-.698-.584-.698-.322 0-.583.313-.583.698v2.105z" fill="#8D94A0"/></svg>