<svg width="24" height="24" fill="none" xmlns="http://www.w3.org/2000/svg"><path fill-rule="evenodd" clip-rule="evenodd" d="M12 2.833A3.667 3.667 0 008.333 6.5v3.667h7.334V6.5A3.667 3.667 0 0012 2.833zm5.5 7.334V6.5a5.5 5.5 0 00-11 0v3.667a2.75 2.75 0 00-2.75 2.75v7.333A2.75 2.75 0 006.5 23h11a2.75 2.75 0 002.75-2.75v-7.333a2.75 2.75 0 00-2.75-2.75zM6.5 12a.917.917 0 00-.917.917v7.333c0 .506.411.917.917.917h11c.506 0 .917-.411.917-.917v-7.333A.917.917 0 0017.5 12h-11zm5.5 2.75c.506 0 .917.41.917.917V17.5a.917.917 0 01-1.834 0v-1.833c0-.506.411-.917.917-.917z" fill="#8D94A0"/></svg>