<svg width="20" height="14" fill="none" xmlns="http://www.w3.org/2000/svg"><path fill-rule="evenodd" clip-rule="evenodd" d="M0 2.833a2.5 2.5 0 012.5-2.5h15a2.5 2.5 0 012.5 2.5v8.334a2.5 2.5 0 01-2.5 2.5h-15a2.5 2.5 0 01-2.5-2.5V2.833zM2.5 2a.834.834 0 00-.833.833v8.334c0 .46.373.833.833.833h15c.46 0 .833-.373.833-.833V2.833A.834.834 0 0017.5 2h-15zM10 5.333a1.667 1.667 0 10.001 3.335A1.667 1.667 0 0010 5.333zM6.667 7a3.333 3.333 0 116.667 0 3.333 3.333 0 01-6.667 0zm-2.5-1.667c.46 0 .833.374.833.834v1.666a.834.834 0 01-1.667 0V6.167c0-.46.374-.834.834-.834zm11.666 0c.46 0 .834.374.834.834v1.666a.834.834 0 01-1.667 0V6.167c0-.46.373-.834.833-.834z" fill="#8D94A0"/></svg>