<svg width="24" height="24" fill="none" xmlns="http://www.w3.org/2000/svg"><path d="M17.739 16.187H6.261a.524.524 0 01-.438-.241c-1.515-2.315-1.631-6.769-1.64-7.43v-.078c0-.305.236-.552.528-.553h.002c.291 0 .529.247.53.55l.001.095c.047 1.572 1.288 2.836 2.808 2.836 1.549 0 2.809-1.313 2.809-2.928 0-.305.237-.553.53-.553h1.217c.293 0 .53.248.53.553 0 1.615 1.26 2.928 2.81 2.928 1.52 0 2.763-1.266 2.808-2.84v-.09a.542.542 0 01.531-.55c.293 0 .53.247.53.552v.078c-.01.661-.126 5.115-1.64 7.43a.524.524 0 01-.438.241z" fill="#FFF780"/><path d="M19.288 7.886a.542.542 0 00-.53.55l-.002.09c-.045 1.574-1.287 2.84-2.808 2.84-1.549 0-2.809-1.313-2.809-2.928a.542.542 0 00-.53-.553H12v8.302h5.74c.175 0 .338-.09.437-.241 1.515-2.315 1.63-6.769 1.64-7.43v-.078a.542.542 0 00-.529-.553z" fill="#FFC02E"/><path d="M12 6c-.944 0-1.713.801-1.713 1.785 0 .985.769 1.786 1.713 1.786.944 0 1.713-.801 1.713-1.786C13.713 6.801 12.944 6 12 6z" fill="#FFC02E"/><path d="M12 6v3.57c.944 0 1.713-.8 1.713-1.785C13.713 6.801 12.944 6 12 6z" fill="#FFA73B"/><path d="M4.713 7.378c-.945 0-1.713.8-1.713 1.785 0 .985.768 1.786 1.713 1.786.944 0 1.712-.801 1.712-1.786 0-.984-.768-1.785-1.712-1.785z" fill="#FFC02E"/><path d="M19.287 7.378c-.944 0-1.713.8-1.713 1.785 0 .985.769 1.786 1.713 1.786.944 0 1.713-.801 1.713-1.786 0-.984-.769-1.785-1.713-1.785z" fill="#FFA73B"/><path d="M17.74 18H6.26a.542.542 0 01-.53-.553V15.8H18.27v1.647a.542.542 0 01-.53.553z" fill="#FFC02E"/><path d="M12 18h5.74c.292 0 .53-.247.53-.553V15.8H12V18z" fill="#FFA73B"/></svg>