<svg width="24" height="24" fill="none" xmlns="http://www.w3.org/2000/svg"><path fill-rule="evenodd" clip-rule="evenodd" d="M11.167 3.667a.834.834 0 00-.834.833v.833h3.334V4.5a.834.834 0 00-.834-.833h-1.666zm4.166 1.666V4.5a2.5 2.5 0 00-2.5-2.5h-1.666a2.5 2.5 0 00-2.5 2.5v.833H4.5A.834.834 0 004.5 7h.088l1.419 12.776A2.5 2.5 0 008.492 22h7.016a2.499 2.499 0 002.485-2.224L19.413 7h.087a.834.834 0 000-1.667h-4.167zM17.736 7H6.264l1.4 12.592a.834.834 0 00.828.741h7.016c.425 0 .781-.319.829-.741L17.736 7zm-7.403 2.5c.46 0 .834.373.834.833V17A.834.834 0 019.5 17v-6.667c0-.46.373-.833.833-.833zm3.334 0c.46 0 .833.373.833.833V17a.834.834 0 01-1.667 0v-6.667c0-.46.374-.833.834-.833z" fill="#8D94A0"/></svg>