<svg width="24" height="24" fill="none" xmlns="http://www.w3.org/2000/svg"><path d="M5.62 4.236a.866.866 0 00-1.189 0 .784.784 0 000 1.142l1.74 1.669c-.454.355-.858.732-1.22 1.111a12.264 12.264 0 00-1.656 2.25 2.164 2.164 0 000 2.181c1.057 1.84 3.732 5.368 8.705 5.368 1.01 0 1.925-.146 2.75-.396a8.468 8.468 0 001.663-.684l1.967 1.887a.866.866 0 001.189 0 .784.784 0 000-1.142L5.62 4.236zm6.38.807c-1.01 0-1.925.146-2.75.396l1.397 1.34c.42-.08.874-.121 1.353-.121 3.658 0 5.821 2.339 6.879 3.944.36.546.36 1.251-.003 1.796-.269.403-.609.853-1.022 1.298l1.194 1.146a12.261 12.261 0 001.657-2.25 2.164 2.164 0 000-2.181C19.649 8.57 16.974 5.043 12 5.043zm-4.635 3.15l1.74 1.67a3.065 3.065 0 00-.469 1.637c0 .065 0 .137.008.202.101 1.622 1.455 2.922 3.146 3.018.067.008.143.008.21.008a3.4 3.4 0 001.705-.45l1.455 1.396a7.003 7.003 0 01-1.807.547c-.428.08-.874.121-1.353.121-3.658 0-5.821-2.339-6.879-3.944a1.627 1.627 0 01.001-1.797 9.837 9.837 0 011.024-1.297 9.362 9.362 0 011.219-1.111zm4.845.087l3.146 3.018C15.255 9.676 13.9 8.376 12.21 8.28zm-1.833 2.804l2.057 1.973c-.134.04-.284.057-.434.057-.925 0-1.682-.726-1.682-1.614 0-.144.018-.288.06-.416z" fill="#8D94A0"/></svg>