<svg width="24" height="24" fill="none" xmlns="http://www.w3.org/2000/svg"><path fill-rule="evenodd" clip-rule="evenodd" d="M14.492 3.784a2.677 2.677 0 013.786 0l1.938 1.938a2.677 2.677 0 010 3.786L9.508 20.216A2.677 2.677 0 017.615 21H3.892A.892.892 0 013 20.108v-3.723c0-.71.282-1.39.784-1.893L14.492 3.784zm2.524 1.262a.892.892 0 00-1.262 0l-1.676 1.676 3.2 3.2 1.676-1.676a.892.892 0 000-1.262l-1.938-1.938zm-1 6.138l-3.2-3.2-7.77 7.77a.892.892 0 00-.261.631v2.83h2.83a.892.892 0 00.63-.261l7.77-7.77z" fill="#8D94A0"/></svg>