<svg width="24" height="24" fill="none" xmlns="http://www.w3.org/2000/svg"><path d="M12 5c-4.973 0-7.648 3.552-8.705 5.405a2.185 2.185 0 000 2.19C4.352 14.448 7.027 18 12 18s7.648-3.552 8.706-5.405a2.185 2.185 0 000-2.19C19.648 8.552 16.973 5 12 5zm0 1.625c3.802 0 5.994 2.547 7 4.16.275.438.274.985-.002 1.423-1.01 1.61-3.212 4.167-6.998 4.167-3.802 0-5.994-2.546-7-4.159a1.334 1.334 0 01.002-1.425C6.012 9.181 8.214 6.625 12 6.625zm0 1.625c-1.858 0-3.364 1.455-3.364 3.25s1.506 3.25 3.364 3.25c1.858 0 3.364-1.455 3.364-3.25S13.858 8.25 12 8.25zm0 1.625c.93 0 1.682.727 1.682 1.625s-.753 1.625-1.682 1.625c-.93 0-1.682-.727-1.682-1.625S11.071 9.875 12 9.875z" fill="#8D94A0"/></svg>