<svg width="20" height="20" fill="none" xmlns="http://www.w3.org/2000/svg"><path fill-rule="evenodd" clip-rule="evenodd" d="M0 10C0 4.475 4.478 0 10 0c5.523 0 10 4.475 10 10s-4.477 10-10 10C4.478 20 0 15.525 0 10zm10-8.333A8.335 8.335 0 001.666 10a8.335 8.335 0 0016.667 0c0-4.6-3.73-8.333-8.333-8.333zM9.515 12.71a.75.75 0 01-.75-.75c-.014-.88.57-1.474 1.148-2.06l.127-.13c.465-.51.945-1.05.945-1.725 0-.75-.48-1.17-1.185-1.17-.394 0-.789.15-1.113.408-.234.185-.58.225-.8.024L7.224 6.7c-.196-.18-.219-.484-.024-.664C7.896 5.396 8.884 5 9.95 5c1.68 0 3.18.96 3.18 2.925 0 1.17-.66 1.95-1.335 2.595-.1.095-.2.187-.298.277-.487.446-.907.83-.932 1.268a.71.71 0 01-.708.645h-.342zm1.38 2.385A1.22 1.22 0 019.68 16.31c-.69 0-1.245-.54-1.245-1.215 0-.66.555-1.2 1.245-1.2.66 0 1.215.54 1.215 1.2z" fill="#8D94A0"/></svg>