<svg width="24" height="24" fill="none" xmlns="http://www.w3.org/2000/svg"><path fill-rule="evenodd" clip-rule="evenodd" d="M6.183 4c-.42-.005-.812.184-1.024.496a.878.878 0 000 1.008c.212.312.604.501 1.024.496h11.632c.42.005.812-.184 1.024-.496a.878.878 0 000-1.008c-.212-.312-.603-.501-1.024-.496H6.183zm0 7c-.42-.005-.812.184-1.024.496a.878.878 0 000 1.008c.212.312.604.501 1.024.496h11.632c.42.005.812-.184 1.024-.496a.878.878 0 000-1.008c-.212-.312-.603-.501-1.024-.496H6.183zm0 7c-.42-.005-.812.184-1.024.496a.878.878 0 000 1.008c.212.312.604.501 1.024.496h11.632c.42.005.812-.184 1.024-.496a.878.878 0 000-1.008c-.212-.312-.603-.501-1.024-.496H6.183z" fill="#8D94A0"/></svg>