<svg width="20" height="21" fill="none" xmlns="http://www.w3.org/2000/svg"><path fill-rule="evenodd" clip-rule="evenodd" d="M2.727 2.8a.91.91 0 00-.909.908v11.819c0 .501.407.909.91.909h4.545c.24 0 .472.095.642.266L10 18.787l2.085-2.085a.907.907 0 01.642-.266h4.546a.91.91 0 00.909-.91V3.709a.91.91 0 00-.91-.909H2.728zM0 3.707A2.727 2.727 0 012.727.981h14.546A2.727 2.727 0 0120 3.708v11.819a2.727 2.727 0 01-2.727 2.727h-4.17l-1.817 1.818c-.71.71-1.861.71-2.571 0l-1.819-1.818H2.727A2.727 2.727 0 010 15.527V3.708zm5.455 3.637a.91.91 0 01.909-.91H9.09a.91.91 0 010 1.819H6.364a.91.91 0 01-.91-.91zm0 3.636a.91.91 0 01.909-.909h7.272a.91.91 0 010 1.818H6.364a.91.91 0 01-.91-.909z" fill="#8D94A0"/></svg>