<svg width="17" height="20" fill="none" xmlns="http://www.w3.org/2000/svg"><path fill-rule="evenodd" clip-rule="evenodd" d="M8.113 0c.46 0 .833.373.833.833v.893c2.828.404 5 2.836 5 5.774v.92c0 1.364.479 2.686 1.353 3.734l.343.413c1.357 1.627.199 4.1-1.92 4.1h-2.275a3.333 3.333 0 01-6.667 0H2.505c-2.12 0-3.278-2.473-1.921-4.1l.343-.413A5.831 5.831 0 002.28 8.42V7.5a5.835 5.835 0 015-5.774V.833c0-.46.373-.833.833-.833zM6.447 16.667a1.667 1.667 0 003.333 0H6.447zM2.505 15a.833.833 0 01-.64-1.367l.343-.412A7.498 7.498 0 003.946 8.42V7.5a4.167 4.167 0 018.334 0v.92c0 1.754.615 3.453 1.738 4.8l.343.413a.833.833 0 01-.64 1.367H2.506z" fill="#8D94A0"/></svg>