<svg width="20" height="16" fill="none" xmlns="http://www.w3.org/2000/svg"><path fill-rule="evenodd" clip-rule="evenodd" d="M0 2.167C0 1.247.747.5 1.667.5h16.666C19.253.5 20 1.247 20 2.167v2.5c0 .92-.747 1.666-1.667 1.666V13a2.5 2.5 0 01-2.5 2.5H4.167a2.5 2.5 0 01-2.5-2.5V6.333C.747 6.333 0 5.587 0 4.667v-2.5zm3.333 4.166V13c0 .46.374.833.834.833h11.666c.46 0 .834-.373.834-.833V6.333H3.333zM1.667 4.667h16.666v-2.5H1.667v2.5zM7.5 8.833c0-.46.373-.833.833-.833h3.334a.834.834 0 010 1.667H8.333a.834.834 0 01-.833-.834z" fill="#8D94A0"/></svg>