<svg width="21" height="20" viewBox="0 0 21 20" fill="none" xmlns="http://www.w3.org/2000/svg">
<path d="M3.193 0C1.706 0 0.5 1.206 0.5 2.695V5.389C0.5 5.884 0.901 6.287 1.398 6.287C1.894 6.287 2.295 5.884 2.295 5.389V2.695C2.295 2.2 2.697 1.796 3.193 1.796H5.887C6.383 1.796 6.785 1.394 6.785 0.898C6.785 0.403 6.383 0 5.887 0H3.193Z" fill="#8D94A0"/>
<path d="M15.1108 0C14.6148 0 14.2148 0.403 14.2148 0.898C14.2148 1.394 14.6148 1.796 15.1108 1.796H17.8068C18.3018 1.796 18.7028 2.2 18.7028 2.695V5.389C18.7028 5.884 19.1048 6.287 19.6008 6.287C20.0968 6.287 20.4988 5.884 20.4988 5.389V2.695C20.4988 1.206 19.2928 0 17.8068 0H15.1108Z" fill="#8D94A0"/>
<path d="M0.5 14.613V17.306C0.5 18.794 1.706 20 3.193 20H5.887C6.383 20 6.785 19.598 6.785 19.101C6.785 18.606 6.383 18.205 5.887 18.205H3.193C2.697 18.205 2.295 17.802 2.295 17.306V14.613C2.295 14.117 1.894 13.714 1.398 13.714C0.901 13.714 0.5 14.117 0.5 14.613Z" fill="#8D94A0"/>
<path d="M18.7028 14.613V17.306C18.7028 17.802 18.3018 18.205 17.8068 18.205H15.1108C14.6148 18.205 14.2148 18.606 14.2148 19.101C14.2148 19.598 14.6148 20 15.1108 20H17.8068C19.2928 20 20.4988 18.794 20.4988 17.306V14.613C20.4988 14.117 20.0968 13.714 19.6008 13.714C19.1048 13.714 18.7028 14.117 18.7028 14.613Z" fill="#8D94A0"/>
<path d="M11.9995 5.001C11.9995 4.72382 12.224 4.5 12.4995 4.5H15.6435C15.919 4.5 16.1435 4.72382 16.1435 5.001V8.143C16.1435 8.42021 15.92 8.643 15.6435 8.643H12.4995C12.223 8.643 11.9995 8.42021 11.9995 8.143V5.001Z" fill="#8D94A0" stroke="#8D94A0"/>
<path d="M4.99951 5.001C4.99951 4.72382 5.22398 4.5 5.49951 4.5H8.64351C8.91904 4.5 9.14351 4.72382 9.14351 5.001V8.143C9.14351 8.42021 8.92002 8.643 8.64351 8.643H5.49951C5.223 8.643 4.99951 8.42021 4.99951 8.143V5.001Z" fill="#8D94A0" stroke="#8D94A0"/>
<path d="M4.99951 12.001C4.99951 11.7238 5.22398 11.5 5.49951 11.5H8.64351C8.91904 11.5 9.14351 11.7238 9.14351 12.001V15.143C9.14351 15.4202 8.92002 15.643 8.64351 15.643H5.49951C5.223 15.643 4.99951 15.4202 4.99951 15.143V12.001Z" fill="#8D94A0" stroke="#8D94A0"/>
<path d="M11.4995 13.5C11.4995 14.8802 12.6183 16 13.9995 16C15.3798 16 16.4995 14.8802 16.4995 13.5C16.4995 12.1198 15.3798 11 13.9995 11C12.6183 11 11.4995 12.1198 11.4995 13.5Z" fill="#8D94A0"/>
</svg>
