<svg width="24" height="24" fill="none" xmlns="http://www.w3.org/2000/svg"><path fill-rule="evenodd" clip-rule="evenodd" d="M11.545 2.455c.25-.25.659-.251.91 0l2.272 2.272a.644.644 0 01-.909.91L12.643 4.46l.001 4.81a.643.643 0 11-1.288.003l.003-4.815-1.177 1.177a.644.644 0 01-.91-.909l2.273-2.272zm7.728 6.818l2.273 2.273c.25.25.25.659 0 .909l-2.273 2.272a.644.644 0 01-.91-.909l1.178-1.177-4.815.003a.643.643 0 11.003-1.288l4.81.001-1.175-1.175a.644.644 0 01.909-.91zm-9.356 2.726c0 .355-.29.646-.646.645l-4.81-.001 1.175 1.175a.644.644 0 01-.909.91l-2.272-2.273a.644.644 0 010-.91l2.272-2.272a.644.644 0 01.91.909l-1.178 1.177 4.815-.003c.355 0 .642.288.643.643zM12 14.083c.355 0 .643.288.643.643l-.003 4.815 1.177-1.177a.644.644 0 01.91.909l-2.273 2.273a.644.644 0 01-.91 0l-2.272-2.273a.644.644 0 01.909-.91l1.175 1.176-.001-4.81c0-.355.29-.646.645-.646z" fill="#8D94A0"/></svg>