<svg width="19" height="20" fill="none" xmlns="http://www.w3.org/2000/svg"><path fill-rule="evenodd" clip-rule="evenodd" d="M9.23 1.667c-.208 0-.416.007-.62.022-.248.018-.51.234-.565.608l-.079.545c-.136.936-.778 1.632-1.492 2.015-.108.058-.213.12-.316.183-.69.43-1.614.638-2.494.287l-.511-.205c-.352-.14-.67-.021-.81.185-.233.34-.441.7-.622 1.075-.108.224-.052.557.244.791l.436.345c.742.584 1.024 1.487.998 2.298L3.397 10l.002.184c.026.811-.256 1.714-.998 2.299l-.436.344c-.296.234-.352.567-.244.79.18.376.39.735.622 1.076.14.206.458.325.81.184l.511-.204c.88-.35 1.804-.141 2.494.287.103.063.208.125.316.182.714.384 1.356 1.08 1.492 2.016l.08.544c.053.375.316.59.563.609a8.516 8.516 0 001.242 0c.248-.018.51-.234.564-.608l.08-.545c.135-.936.778-1.632 1.492-2.016.107-.057.212-.119.317-.182.689-.428 1.613-.638 2.492-.287l.512.204c.351.14.669.022.81-.184.232-.34.44-.7.621-1.075.109-.224.053-.557-.244-.791l-.436-.345c-.741-.584-1.024-1.487-.998-2.298l.003-.184-.003-.184c-.026-.811.257-1.714.998-2.299l.436-.344c.297-.234.353-.567.244-.79a8.331 8.331 0 00-.621-1.076c-.141-.206-.459-.325-.81-.185l-.512.205c-.88.35-1.803.142-2.492-.287a6.65 6.65 0 00-.317-.183c-.714-.383-1.357-1.079-1.493-2.015l-.079-.545c-.054-.374-.316-.59-.564-.608a8.516 8.516 0 00-.62-.022zM8.488.027a9.947 9.947 0 011.485 0c1.154.085 1.944 1.015 2.091 2.031l.08.545c.041.286.256.584.631.786.139.074.274.153.407.236.361.224.727.26.996.153l.513-.204c.952-.38 2.15-.16 2.803.793.279.409.53.84.747 1.29.503 1.042.092 2.19-.714 2.825l-.435.344c-.228.179-.378.514-.365.938a7.383 7.383 0 010 .472c-.014.424.137.759.365.938l.435.344c.806.634 1.216 1.783.714 2.824-.218.45-.468.882-.747 1.291-.652.954-1.85 1.173-2.803.793l-.513-.204c-.269-.108-.635-.071-.996.153a6.78 6.78 0 01-.407.236c-.375.201-.59.5-.632.787l-.079.544c-.147 1.016-.937 1.946-2.091 2.03a9.965 9.965 0 01-1.485 0c-1.154-.084-1.944-1.014-2.092-2.03l-.08-.544c-.04-.287-.256-.585-.63-.787a6.77 6.77 0 01-.407-.236c-.362-.224-.728-.26-.997-.153l-.513.204c-.952.38-2.15.16-2.802-.793-.28-.409-.53-.84-.747-1.29-.503-1.042-.092-2.19.714-2.825l.435-.344c.227-.179.378-.514.365-.938a7.379 7.379 0 010-.472c.013-.424-.138-.759-.365-.938l-.435-.344C.128 7.848-.283 6.7.22 5.659c.217-.45.468-.882.747-1.291.652-.954 1.85-1.173 2.802-.793l.513.204c.269.108.635.071.997-.153.132-.083.268-.162.406-.236.375-.201.59-.5.632-.786l.079-.545c.148-1.016.938-1.946 2.092-2.03zM9.23 7.5a2.5 2.5 0 100 5 2.5 2.5 0 000-5zM5.063 10a4.167 4.167 0 118.334 0 4.167 4.167 0 01-8.334 0z" fill="#8D94A0"/></svg>