<svg width="24" height="24" viewBox="0 0 24 24" fill="none" xmlns="http://www.w3.org/2000/svg">
<path fill-rule="evenodd" clip-rule="evenodd" d="M14.7273 3.81818C14.2255 3.81818 13.8182 3.40909 13.8182 2.90909C13.8182 2.40909 14.2255 2 14.7273 2H21.0909C21.5927 2 22 2.40909 22 2.90909V9.27273C22 9.77273 21.5927 10.1818 21.0909 10.1818C20.5891 10.1818 20.1818 9.77273 20.1818 9.27273V5.1L13.5518 11.7364C13.1964 12.0909 12.6218 12.0909 12.2664 11.7364C11.9109 11.3818 11.9109 10.8 12.2664 10.4455L18.8964 3.81818H14.7273ZM4.72727 6.54545C4.22545 6.54545 3.81818 6.95455 3.81818 7.45455V19.2727C3.81818 19.7727 4.22545 20.1818 4.72727 20.1818H16.5455C17.0473 20.1818 17.4545 19.7727 17.4545 19.2727V12.9091C17.4545 12.4091 17.8618 12 18.3636 12C18.8655 12 19.2727 12.4091 19.2727 12.9091V19.2727C19.2727 20.7818 18.0518 22 16.5455 22H4.72727C3.22091 22 2 20.7818 2 19.2727V7.45455C2 5.94545 3.22091 4.72727 4.72727 4.72727H11.0909C11.5927 4.72727 12 5.13636 12 5.63636C12 6.13636 11.5927 6.54545 11.0909 6.54545H4.72727Z" fill="#8D94A0"/>
</svg>
