<svg width="20" height="20" fill="none" xmlns="http://www.w3.org/2000/svg"><path fill-rule="evenodd" clip-rule="evenodd" d="M10 0a.91.91 0 01.91.91v.908h8.18a.91.91 0 010 1.818v9.091a.91.91 0 010 1.819h-8.18v3.636h.908a.91.91 0 010 1.818H8.182a.91.91 0 010-1.818h.909v-3.636H.909a.91.91 0 010-1.819v-9.09a.91.91 0 010-1.819h8.182V.91A.91.91 0 0110 0zM2.727 12.727h14.546v-9.09H2.727v9.09zM10 5.455a.91.91 0 01.91.909V10a.91.91 0 01-1.82 0V6.364a.91.91 0 01.91-.91zm3.636.909a.91.91 0 01.91.909V10a.91.91 0 01-1.819 0V7.273a.91.91 0 01.91-.91zM6.364 8.182a.91.91 0 01.909.909V10a.91.91 0 01-1.818 0v-.91a.91.91 0 01.909-.908z" fill="#8D94A0"/></svg>