<svg width="24" height="24" fill="none" xmlns="http://www.w3.org/2000/svg"><path fill-rule="evenodd" clip-rule="evenodd" d="M15.5 3a5.5 5.5 0 00-5.195 7.311l.206.592L3 18.414V21h2.586l1.121-1.121A1 1 0 007 19.171V18a2 2 0 012-2h2.586l2.233-2.233.531.113A5.5 5.5 0 1015.5 3zM8 8.5a7.5 7.5 0 116.483 7.432L13 17.414a2 2 0 01-1.414.586H9v1.171a3 3 0 01-.879 2.122L7 22.414A2 2 0 015.586 23H3a2 2 0 01-2-2v-2.586A2 2 0 011.586 17l6.645-6.646A7.51 7.51 0 018 8.5zm9.707-2.207a.999.999 0 010 1.414l-1 1a.999.999 0 11-1.414-1.414l1-1a.999.999 0 011.414 0z" fill="#30C3F3"/></svg>