<svg width="201" height="32" fill="none" xmlns="http://www.w3.org/2000/svg"><path d="M6.771 9.73l5.756 2.514c.346.16.73.215 1.107.16a1.897 1.897 0 00.129-3.72L7.616 7.304a1.31 1.31 0 00-.519 0A1.29 1.29 0 006.022 8.78c.074.432.358.8.758.978M13.794 5.638c-.229.364-.288.81-.16 1.222a1.433 1.433 0 002.43.51l3.592-4.167c.466-.512.628-1.23.427-1.893A1.897 1.897 0 0017.695.093a1.86 1.86 0 00-1.034.813c-.06.106-2.862 4.722-2.871 4.732M24.113 12.52a1.475 1.475 0 00-1.213.229 1.43 1.43 0 00-.312 1.998c.151.2.35.357.579.46l5.08 2.117c.63.286 1.364.218 1.93-.179a1.893 1.893 0 00.418-2.646 1.865 1.865 0 00-1.07-.716l-5.412-1.264zM20.769 24.44a1.433 1.433 0 00-2.857-.069s-.46 5.471-.46 5.485a1.962 1.962 0 00.767 1.782 1.893 1.893 0 002.647-.422 1.87 1.87 0 00.358-1.259c0-.12-.46-5.512-.46-5.512M8.393 24.964c.399-.16.708-.485.846-.891a1.438 1.438 0 00-.92-1.81 1.47 1.47 0 00-.743-.037L2.21 23.485a1.943 1.943 0 00-1.46 1.277A1.893 1.893 0 003.27 27.1l5.122-2.136zM4.07 13.332c.273.33.678.524 1.107.528a1.433 1.433 0 001.24-2.15L3.566 7.008a1.966 1.966 0 00-1.668-.993A1.897 1.897 0 000 7.912c0 .45.163.886.46 1.226l3.615 4.194M18.04 7.098l-.601 6.234c-.044.379.023.761.192 1.103a1.893 1.893 0 003.575-1.025s-.598-6.252-.598-6.266a1.29 1.29 0 00-1.87-1.07c-.39.202-.652.587-.698 1.024zM24.044 17.017l-6.115 1.378a1.956 1.956 0 00-.987.524A1.892 1.892 0 0019.022 22l5.775-2.513a1.286 1.286 0 00.46-2.108 1.295 1.295 0 00-1.19-.345M16.47 25.777l-3.184-5.398a1.943 1.943 0 00-.8-.785 1.897 1.897 0 00-2.297 2.93l4.176 4.728a1.29 1.29 0 002.109-1.475M5.789 21.28l4.134-4.695a1.97 1.97 0 00.496-1.002 1.892 1.892 0 00-3.496-1.272s-3.215 5.407-3.215 5.42a1.25 1.25 0 00-.184.487 1.286 1.286 0 002.232 1.062" fill="#EB2D4B"/><path fill-rule="evenodd" clip-rule="evenodd" d="M67.693 26.177c-2.51 0-4.86-.056-6.692-.157V6.02c.6-.052 2.375-.095 4.902-.158l.51-.012a26.93 26.93 0 014.745.234c2.972.46 4.052 1.888 4.52 2.67a4.41 4.41 0 01.676 2.677 4.25 4.25 0 01-1.81 3.35l-.23.183.262.129a4.461 4.461 0 011.874 1.888c.483.889.73 1.887.717 2.898 0 2.155-.776 3.786-2.352 4.88-1.378.968-3.334 1.418-7.122 1.419zm0 0h-.003.009-.006zm-2.001-4.135c1.059.077 2.121.1 3.183.07.845-.028 1.966-.097 2.756-.92.715-.728.842-1.85.308-2.72-.491-.83-1.474-1.24-3.859-1.212-1.199 0-2.353.127-2.41.133h-.001l.023 4.65zM65.687 9.75a14.98 14.98 0 012.246-.11l.005-.019c1.194 0 3.073.056 3.675 1.264.38.736.22 1.635-.39 2.196-.598.537-1.617.67-3.354.67-1.093 0-2.012-.078-2.012-.078h-.17V9.75z" fill="#fff"/><path d="M56.43 6.005h-4.644c-.418.855-3.312 6.836-4.64 10.245l-.087.234h-.156l-.092-.235c-1.328-3.408-4.222-9.39-4.635-10.244h-4.65c-1 7.226-1.497 18.403-1.57 20.02h4.626c.041-1.341.317-9.771.51-11.668l.046-.46h.114l.189.423c1.539 3.519 3.528 8.356 3.854 9.156h3.358c.326-.8 2.297-5.637 3.854-9.156l.189-.422h.11l.05.459c.193 1.897.46 10.327.515 11.668h4.635c-.064-1.603-.565-12.78-1.566-20.006" fill="#fff"/><path fill-rule="evenodd" clip-rule="evenodd" d="M83.223 14.722c1.02.93 2.645 1.715 4.875 2.356 1.778.515 3.006 1.038 3.683 1.57.677.525 1.016 1.27 1.016 2.235 0 .966-.366 1.73-1.097 2.289-.731.56-1.783.84-3.155.84-1.472 0-2.65-.344-3.535-1.03-.875-.695-1.313-1.638-1.313-2.83h-2.614c0 1.147.316 2.171.948 3.074.641.903 1.548 1.616 2.722 2.14 1.174.514 2.438.771 3.792.771 2.085 0 3.75-.478 4.996-1.435 1.246-.966 1.87-2.248 1.87-3.846 0-1.002-.226-1.873-.678-2.613-.442-.74-1.128-1.386-2.058-1.937-.92-.56-2.203-1.07-3.846-1.53-1.634-.46-2.794-.966-3.48-1.517-.677-.56-1.016-1.24-1.016-2.044 0-1.002.357-1.783 1.07-2.343.722-.569 1.724-.853 3.006-.853 1.382 0 2.451.343 3.21 1.029.758.677 1.137 1.611 1.137 2.803h2.614a5.51 5.51 0 00-.88-3.02c-.578-.92-1.4-1.643-2.465-2.166-1.056-.524-2.262-.786-3.616-.786-1.986 0-3.602.51-4.848 1.53-1.236 1.012-1.855 2.293-1.855 3.846 0 1.372.506 2.528 1.517 3.467zm16.372 9.466c1.246 1.3 2.861 1.95 4.848 1.95 2.455 0 4.297-.944 5.525-2.83l-1.531-1.192a5.639 5.639 0 01-1.611 1.435c-.614.361-1.363.542-2.248.542-1.246 0-2.275-.443-3.087-1.327-.804-.894-1.224-2.063-1.26-3.508h9.926v-1.042c0-2.339-.528-4.135-1.584-5.39s-2.537-1.882-4.442-1.882a5.86 5.86 0 00-3.25.975c-.993.64-1.77 1.534-2.329 2.681-.55 1.138-.826 2.433-.826 3.886v.46c0 2.186.623 3.932 1.869 5.241zm4.536-11.186c-1.011 0-1.86.37-2.546 1.11-.686.732-1.11 1.76-1.273 3.088h7.34v-.19c-.072-1.273-.415-2.257-1.029-2.952-.614-.704-1.445-1.056-2.492-1.056zm17.157 10.278c-.668.542-1.448.813-2.342.813-1.291 0-2.284-.456-2.979-1.368-.696-.912-1.043-2.212-1.043-3.9v-.474c0-1.733.347-3.056 1.043-3.968.704-.92 1.692-1.38 2.965-1.38.948 0 1.743.306 2.384.92.65.605 1.011 1.381 1.083 2.33h2.37c-.073-1.572-.655-2.85-1.747-3.833-1.084-.984-2.447-1.476-4.09-1.476-1.336 0-2.496.307-3.48.92-.975.614-1.724 1.477-2.248 2.587-.524 1.11-.785 2.379-.785 3.805v.42c0 2.311.587 4.135 1.76 5.47 1.183 1.328 2.772 1.991 4.767 1.991.993 0 1.932-.225 2.816-.677.894-.45 1.607-1.056 2.14-1.814.533-.759.822-1.558.867-2.397h-2.37c-.072.813-.443 1.49-1.111 2.031zm15.343 1.138c-.975 1.146-2.406 1.72-4.293 1.72-1.561 0-2.753-.452-3.574-1.355-.813-.911-1.224-2.257-1.233-4.035v-9.533h2.505v9.465c0 2.221.903 3.332 2.709 3.332 1.914 0 3.187-.714 3.819-2.14V11.215h2.505v14.652h-2.384l-.054-1.45zm12.106-11.05c.443 0 .854.031 1.232.095v-2.33c-.252-.126-.622-.19-1.109-.19-1.508 0-2.673.655-3.495 1.964l-.04-1.692h-2.437v14.652h2.505v-10.4c.587-1.4 1.702-2.1 3.344-2.1zm6.27 12.499h-2.504V11.215h2.504v14.652zm-2.343-19.568c-.243.28-.365.623-.365 1.03 0 .405.122.744.365 1.015.253.27.624.406 1.111.406.488 0 .857-.135 1.11-.406.254-.271.379-.61.379-1.016s-.125-.75-.379-1.029c-.253-.28-.622-.42-1.11-.42-.487 0-.858.14-1.111.42zm9.764 1.368v3.548h2.736v1.936h-2.736v9.087c0 .586.121 1.029.365 1.327.244.288.66.433 1.247.433.288 0 .685-.054 1.191-.163v2.032c-.659.18-1.3.27-1.923.27-1.119 0-1.963-.338-2.532-1.015-.569-.677-.853-1.639-.853-2.884V13.15h-2.668v-1.936h2.668V7.667h2.505zm5.891 18.2h2.505V11.215h-2.505v14.652zm-.203-18.539c0-.406.121-.75.365-1.029.254-.28.623-.42 1.111-.42.487 0 .857.14 1.111.42.252.28.378.623.378 1.03 0 .405-.126.744-.378 1.015-.254.27-.624.406-1.111.406-.488 0-.857-.135-1.111-.406-.244-.271-.365-.61-.365-1.016zm7.963 16.86c1.245 1.3 2.861 1.95 4.848 1.95 2.454 0 4.296-.944 5.524-2.83l-1.53-1.192a5.655 5.655 0 01-1.612 1.435c-.613.361-1.362.542-2.248.542-1.245 0-2.274-.443-3.088-1.327-.802-.894-1.222-2.063-1.258-3.508h9.925v-1.042c0-2.339-.528-4.135-1.584-5.39s-2.536-1.882-4.441-1.882a5.861 5.861 0 00-3.251.975c-.992.64-1.769 1.534-2.328 2.681-.551 1.138-.827 2.433-.827 3.886v.46c0 2.186.623 3.932 1.87 5.241zm4.536-11.186c-1.011 0-1.86.37-2.546 1.11-.686.732-1.11 1.76-1.273 3.088h7.34v-.19c-.073-1.273-.416-2.257-1.029-2.952-.615-.704-1.446-1.056-2.492-1.056zm16.697 7.408c.515.37.771.893.771 1.57 0 .641-.288 1.156-.867 1.544-.568.38-1.327.569-2.275.569-1.029 0-1.86-.244-2.492-.732-.622-.496-.956-1.164-1.001-2.004h-2.505c0 .867.253 1.675.758 2.424.515.74 1.223 1.318 2.126 1.734.902.415 1.941.622 3.114.622 1.671 0 3.03-.392 4.076-1.178 1.048-.794 1.571-1.846 1.571-3.155 0-.785-.189-1.449-.568-1.99-.371-.551-.944-1.02-1.72-1.409-.776-.388-1.792-.722-3.047-1.002-1.246-.28-2.108-.573-2.586-.88-.479-.307-.718-.763-.718-1.368 0-.64.258-1.16.772-1.557.515-.397 1.227-.596 2.139-.596.885 0 1.616.248 2.195.745.586.496.88 1.088.88 1.774h2.518c0-1.336-.518-2.433-1.557-3.29-1.029-.858-2.375-1.287-4.036-1.287-1.58 0-2.88.415-3.9 1.246-1.011.83-1.516 1.846-1.516 3.046 0 .723.176 1.346.528 1.87.361.523.912.974 1.652 1.353.749.38 1.756.705 3.02.975 1.272.271 2.161.596 2.668.976z" fill="#fff"/></svg>